<?xml version="1.0" encoding="utf-8"?>

<svg version="1.1" id="Layer_1" xmlns="http://www.w3.org/2000/svg" xmlns:xlink="http://www.w3.org/1999/xlink" x="0px" y="0px" viewBox="0 0 2545.51 340.16" style="enable-background:new 0 0 2545.51 340.16;" xml:space="preserve">


<g>
&#x9;<g>
&#x9;&#x9;<path d="M530.93,92.94v205.57h53.94v-89.36h67.14c15.7,0,30.2-3.82,43.1-11.37c12.87-7.52,23.31-17.77,31.03-30.48&#xA;&#x9;&#x9;&#x9;c7.76-12.76,11.7-27.26,11.7-43.08c0-15.35-3.82-29.43-11.34-41.84c-7.49-12.35-17.58-22.25-29.99-29.43&#xA;&#x9;&#x9;&#x9;c-12.45-7.18-26.47-10.83-41.68-10.83h-122.6h-41.62L530.93,92.94z M677.48,141.56L677.48,141.56&#xA;&#x9;&#x9;&#x9;c-3.15,5.08-7.43,9.21-12.69,12.29c-5.23,3.05-10.95,4.59-17,4.59h-62.91V92.84h62.91c6.1,0,11.86,1.45,17.11,4.3&#xA;&#x9;&#x9;&#x9;c5.26,2.86,9.51,6.71,12.65,11.44c3.1,4.67,4.61,9.9,4.61,16C682.15,130.86,680.58,136.57,677.48,141.56z"></path>
&#x9;&#x9;<path d="M1163,198.59c27.35-8.19,38.12-24.53,42.44-31.76c4.29-7.18,11.13-26.89,11.13-42.25c0-15.58-3.82-29.78-11.34-42.2&#xA;&#x9;&#x9;&#x9;c-7.51-12.38-17.92-22.29-30.95-29.47c-13.01-7.16-27.66-10.79-43.54-10.79H964.37l40.35,50.82v205.57h52.88v-90.42h38.69&#xA;&#x9;&#x9;&#x9;l71.54,90.41l66.64-0.08l-78.46-98.89C1156.01,199.52,1157.13,199.51,1163,198.59z M1161.58,125.64c0,6.32-1.53,12.12-4.54,17.25&#xA;&#x9;&#x9;&#x9;c-3.04,5.17-7.19,9.34-12.32,12.4h0c-5.1,3.04-10.99,4.57-17.5,4.57h-69.61V91.78h64.33c7.78,0,14.76,1.53,20.74,4.53&#xA;&#x9;&#x9;&#x9;c5.91,2.98,10.61,7.04,13.95,12.09C1159.91,113.37,1161.58,119.16,1161.58,125.64z"></path>
&#x9;&#x9;<polygon points="1901.19,248.6 1901.15,192.23 2019.24,192.14 2019.2,142.85 1901.12,142.93 1901.08,92.23 2040.84,92.13 &#xA;&#x9;&#x9;&#x9;2040.81,42.12 1847.81,42.26 1847.99,298.64 2040.84,298.51 2040.81,248.51 &#x9;&#x9;"></polygon>
&#x9;&#x9;<polygon points="2086.67,42.12 2086.67,92.84 2167.05,92.84 2167.05,298.51 2220.99,298.51 2220.99,92.84 2303.47,92.84 &#xA;&#x9;&#x9;&#x9;2303.47,42.12 &#x9;&#x9;"></polygon>
&#x9;&#x9;<path d="M1349.66,42.12l-107.82,254.48l-0.7,1.64h56.17l23.93-54.45h108.65l23.75,54.45h55.75L1401.67,42.12H1349.66z&#xA;&#x9;&#x9;&#x9; M1375.79,102l36.36,94.92h-73.04L1375.79,102z"></path>
&#x9;&#x9;<path d="M820.17,42.12L712.35,296.61l-0.7,1.64h56.17l23.93-54.45H900.4l23.75,54.45h55.75L872.18,42.12H820.17z M846.3,102&#xA;&#x9;&#x9;&#x9;l36.36,94.92h-73.04L846.3,102z"></path>
&#x9;&#x9;<path d="M2385.78,42.12l-107.82,254.48l-0.7,1.64h56.17l23.93-54.45h108.65l23.75,54.45h55.75L2437.8,42.12H2385.78z M2411.91,102&#xA;&#x9;&#x9;&#x9;l36.36,94.92h-73.04L2411.91,102z"></path>
&#x9;&#x9;<polygon points="1792.86,42.12 1746.04,42.12 1735.99,42.12 1665.65,172.94 1595.3,42.12 1585.26,42.12 1538.44,42.12 &#xA;&#x9;&#x9;&#x9;1529.19,42.12 1529.19,298.24 1585.26,298.24 1585.26,130.06 1636.53,226.37 1645.95,244.05 1665.63,244.05 1665.66,244.05 &#xA;&#x9;&#x9;&#x9;1685.35,244.05 1694.76,226.37 1746.04,130.06 1746.04,298.24 1802.1,298.24 1802.1,42.12 &#x9;&#x9;"></polygon>
&#x9;</g>
&#x9;<g>
&#x9;&#x9;<polygon class="st2" points="350.54,298.67 276.41,205.16 331.74,93.51 405.88,187.02 &#x9;&#x9;"></polygon>
&#x9;&#x9;<polygon points="331.74,93.51 257.4,0 123.54,0 123.54,0 123.54,0 123.54,0 123.54,0 0,246.65 74.14,340.16 197.88,93.52 &#xA;&#x9;&#x9;&#x9;197.88,93.52 &#x9;&#x9;"></polygon>
&#x9;&#x9;<polygon points="350.54,298.67 216.12,298.67 141.78,205.16 276.41,205.16 &#x9;&#x9;"></polygon>
&#x9;</g>
</g>
</svg>