<svg width="300" height="40" viewBox="0 0 300 40" fill="none" xmlns="http://www.w3.org/2000/svg">
<path d="M63.0654 10.9288V35.1042H69.3782V24.5964H77.2379C79.0743 24.5964 80.7724 24.145 82.2848 23.2595C83.7928 22.3741 85.0156 21.1675 85.9186 19.6745C86.826 18.1727 87.2884 16.467 87.2884 14.6094C87.2884 12.7517 86.8433 11.1502 85.9618 9.6875C85.0847 8.23351 83.9051 7.07031 82.449 6.2283C80.9928 5.38194 79.3509 4.9566 77.5706 4.9566H58.3469L63.0654 10.9332V10.9288ZM80.2237 16.645C79.8564 17.2439 79.3552 17.73 78.7373 18.0903C78.1237 18.4505 77.454 18.6285 76.7453 18.6285H69.3782V10.9158H76.7453C77.4583 10.9158 78.1324 11.0851 78.7459 11.4193C79.3595 11.7535 79.8607 12.2092 80.228 12.7648C80.591 13.316 80.7681 13.928 80.7681 14.6441C80.7681 15.3602 80.5823 16.0547 80.2194 16.6406" fill="#0F0A25"/>
<path d="M137.061 23.3507C140.263 22.3872 141.525 20.4644 142.03 19.6181C142.531 18.776 143.335 16.4583 143.335 14.6484C143.335 12.8385 142.89 11.1458 142.008 9.6875C141.131 8.23351 139.909 7.06597 138.383 6.22396C136.858 5.38194 135.147 4.9566 133.285 4.9566H113.806L118.529 10.9332V35.1085H124.721V24.4748H129.249L137.623 35.1042L145.426 35.0955L136.24 23.4679C136.24 23.4679 136.37 23.4679 137.057 23.3594M136.888 14.783C136.888 15.5252 136.711 16.2066 136.357 16.8099C136.002 17.4175 135.514 17.908 134.914 18.2682C134.317 18.6241 133.626 18.8064 132.865 18.8064H124.716V10.803H132.248C133.159 10.803 133.976 10.9809 134.676 11.3368C135.367 11.6884 135.916 12.1658 136.309 12.7561C136.694 13.342 136.888 14.0234 136.888 14.783Z" fill="#0F0A25"/>
<path d="M223.479 29.2361L223.475 22.6042L237.302 22.5955L237.297 16.7969L223.471 16.8099L223.466 10.8464L239.83 10.8333L239.825 4.95226L217.231 4.96962L217.253 35.1172L239.83 35.1042L239.825 29.2231L223.479 29.2361Z" fill="#0F0A25"/>
<path d="M245.196 4.95226V10.9201H254.603V35.1042H260.92V10.9201H270.577V4.95226H245.196Z" fill="#0F0A25"/>
<path d="M158.912 4.95226L146.29 34.8785L146.208 35.0694H152.785L155.585 28.6675H168.305L171.084 35.0694H177.608L165 4.95226H158.912ZM161.971 11.9922L166.227 23.1554H157.676L161.971 11.9922Z" fill="#0F0A25"/>
<path d="M96.9242 4.95226L84.3028 34.8785L84.2207 35.0694H90.7971L93.5971 28.6675H106.318L109.096 35.0694H115.621L103.012 4.95226H96.9242ZM99.9834 11.9922L104.239 23.1554H95.6884L99.9834 11.9922Z" fill="#0F0A25"/>
<path d="M280.213 4.95226L267.591 34.8785L267.509 35.0694H274.086L276.886 28.6675H289.606L292.385 35.0694H298.909L286.301 4.95226H280.213ZM283.272 11.9922L287.528 23.1554H278.977L283.272 11.9922Z" fill="#0F0A25"/>
<path d="M210.797 4.95226H205.318H204.143L195.908 20.3385L187.672 4.95226H186.497H181.013H179.933V35.0738H186.497V15.2951L192.498 26.6189L193.6 28.6979H195.903H195.908H198.211L199.312 26.6189L205.318 15.2951V35.0738H211.882V4.95226H210.797Z" fill="#0F0A25"/>
<path d="M41.9493 35.1215L33.2686 24.1276L39.7456 10.9983L48.4263 21.9922L41.9493 35.1215Z" fill="#330099"/>
<path d="M39.7455 10.9983L31.0432 0H15.3713L0.90918 29.0061L9.58988 40L24.0736 10.9983H39.7455Z" fill="#6100FF"/>
<path d="M41.9449 35.1215H26.2125L17.5059 24.1276H33.2685L41.9449 35.1215Z" fill="#6100FF"/>
</svg>
