<?xml version="1.0" encoding="UTF-8"?>
<svg id="Layer_1" xmlns="http://www.w3.org/2000/svg" xmlns:xlink="http://www.w3.org/1999/xlink" version="1.1" viewBox="0 0 500 500">
  <!-- Generator: Adobe Illustrator 30.4.0, SVG Export Plug-In . SVG Version: 2.1.4 Build 226)  -->
  <defs>
    <style>
      .st0 {
        fill: #0f0a25;
      }

      .st1 {
        fill: url(#radial-gradient);
      }

      .st2 {
        fill: url(#radial-gradient1);
      }
    </style>
    <radialGradient id="radial-gradient" cx="-2513.04" cy="1926.98" fx="-2513.04" fy="1926.98" r="12.75" gradientTransform="translate(-27178.596 16796.8587) rotate(105) scale(9.1735 -11.4633)" gradientUnits="userSpaceOnUse">
      <stop offset="0" stop-color="#d3cafd"/>
      <stop offset=".25" stop-color="#8675fd"/>
      <stop offset=".45" stop-color="#6d41fc"/>
      <stop offset="1" stop-color="#3100c3"/>
    </radialGradient>
    <radialGradient id="radial-gradient1" cx="-2218" cy="1836.03" fx="-2218" fy="1836.03" r="12.75" gradientTransform="translate(-17839.0107 19620.6217) rotate(71.5965) scale(5.7646 -12.615)" gradientUnits="userSpaceOnUse">
      <stop offset=".2" stop-color="#9482fd"/>
      <stop offset="1" stop-color="#28009e"/>
    </radialGradient>
  </defs>
  <path class="st0" d="M383.18,45.83h-197.24l-23.37,87.32c-16.18,60.35,19.78,109.41,80.13,109.41l29.79-111.21h76.28c32.62,0,52.13,26.45,43.4,59.33-8.73,32.62-42.38,59.33-74.99,59.33h-76.28c-60.35,0-122.51,49.05-138.69,109.41l-25.43,94.77h109.41l28.25-105.3h88.09c83.72,0,169.5-67.8,192.1-151.53,22.34-83.72-27.22-151.53-110.95-151.53h-.51Z"/>
  <path class="st1" d="M1.03,246.15l-1.03,3.6h7.19c60.35,0,96.31,49.05,80.13,109.41h7.19l30.31-113H1.03Z"/>
  <path class="st2" d="M155.12,133.15h-7.19c-16.18,60.35-78.33,109.41-138.68,109.41H2.05l-1.03,3.6h123.79l30.3-113Z"/>
</svg>