<svg width="432" height="346" viewBox="0 0 432 346" fill="none" xmlns="http://www.w3.org/2000/svg">
<rect opacity="0.5" width="432" height="346" fill="url(#paint0_linear_459_986)"/>
<mask id="mask0_459_986" style="mask-type:alpha" maskUnits="userSpaceOnUse" x="0" y="0" width="432" height="346">
<rect width="432" height="346" fill="#FF0000"/>
</mask>
<g mask="url(#mask0_459_986)">
<path d="M301 277.41C394.888 277.41 471 201.298 471 107.41C471 13.5216 394.888 -62.59 301 -62.59C207.112 -62.59 131 13.5216 131 107.41C131 201.298 207.112 277.41 301 277.41Z" stroke="#424252" stroke-miterlimit="10"/>
<path d="M302.992 276.883C303.267 276.875 303.498 277.092 303.505 277.368C303.513 277.644 303.295 277.874 303.019 277.882C302.354 277.9 301.688 277.91 301.02 277.91C300.352 277.91 299.686 277.9 299.021 277.882C298.745 277.874 298.527 277.644 298.535 277.368C298.543 277.092 298.773 276.875 299.049 276.883C299.705 276.901 300.362 276.91 301.02 276.91C301.678 276.91 302.336 276.901 302.992 276.883ZM291.223 276.225C292.519 276.407 293.822 276.553 295.13 276.663C295.405 276.686 295.609 276.929 295.586 277.204C295.563 277.479 295.321 277.683 295.046 277.66C293.719 277.549 292.398 277.4 291.084 277.216C290.811 277.177 290.62 276.925 290.659 276.651C290.697 276.378 290.95 276.187 291.223 276.225ZM310.817 276.225C311.09 276.187 311.343 276.378 311.381 276.651C311.42 276.924 311.23 277.177 310.957 277.216C309.642 277.4 308.321 277.549 306.994 277.66C306.719 277.683 306.477 277.479 306.454 277.204C306.431 276.929 306.635 276.686 306.911 276.663C308.219 276.553 309.521 276.407 310.817 276.225ZM283.517 274.706C284.787 275.029 286.065 275.318 287.349 275.571C287.62 275.625 287.797 275.888 287.744 276.159C287.69 276.43 287.426 276.606 287.156 276.553C285.853 276.296 284.558 276.002 283.27 275.675C283.003 275.606 282.841 275.335 282.909 275.067C282.977 274.8 283.25 274.638 283.517 274.706ZM318.523 274.706C318.79 274.638 319.063 274.8 319.131 275.067C319.199 275.335 319.037 275.606 318.77 275.675C317.482 276.002 316.187 276.296 314.884 276.553C314.614 276.606 314.351 276.43 314.297 276.159C314.244 275.888 314.42 275.625 314.691 275.571C315.975 275.318 317.253 275.029 318.523 274.706ZM275.374 272.662C275.469 272.403 275.757 272.27 276.016 272.366C277.247 272.822 278.487 273.245 279.734 273.635C279.997 273.717 280.144 273.997 280.062 274.261C279.98 274.524 279.699 274.671 279.436 274.589C278.173 274.194 276.917 273.766 275.669 273.305C275.411 273.209 275.278 272.921 275.374 272.662ZM326.024 272.366C326.283 272.27 326.571 272.403 326.667 272.662C326.762 272.921 326.63 273.209 326.372 273.305C325.124 273.766 323.868 274.194 322.604 274.589C322.341 274.671 322.06 274.524 321.978 274.261C321.896 273.997 322.043 273.717 322.306 273.635C323.553 273.245 324.793 272.822 326.024 272.366ZM268.115 269.498C268.236 269.25 268.536 269.147 268.784 269.268C269.969 269.846 271.163 270.393 272.365 270.908C272.618 271.017 272.736 271.312 272.627 271.565C272.519 271.819 272.225 271.936 271.971 271.828C270.754 271.306 269.545 270.752 268.345 270.167C268.097 270.046 267.994 269.746 268.115 269.498ZM333.256 269.268C333.504 269.148 333.804 269.25 333.925 269.498C334.046 269.746 333.943 270.046 333.695 270.167C332.495 270.752 331.286 271.306 330.069 271.828C329.815 271.936 329.521 271.819 329.413 271.565C329.304 271.311 329.421 271.017 329.675 270.908C330.877 270.393 332.071 269.846 333.256 269.268ZM261.202 265.667C261.345 265.431 261.653 265.356 261.889 265.499C263.016 266.183 264.151 266.838 265.295 267.464C265.537 267.596 265.626 267.9 265.494 268.142C265.361 268.385 265.057 268.474 264.815 268.342C263.657 267.708 262.509 267.045 261.37 266.353C261.134 266.21 261.059 265.903 261.202 265.667ZM340.152 265.499C340.388 265.356 340.695 265.431 340.838 265.667C340.981 265.903 340.906 266.21 340.67 266.353C339.531 267.045 338.383 267.708 337.225 268.342C336.983 268.474 336.679 268.385 336.546 268.142C336.414 267.9 336.503 267.596 336.745 267.464C337.889 266.838 339.025 266.183 340.152 265.499ZM254.642 261.237C254.805 261.014 255.117 260.965 255.34 261.128C256.405 261.905 257.48 262.655 258.563 263.379C258.792 263.532 258.855 263.844 258.702 264.073C258.548 264.302 258.238 264.364 258.008 264.211C256.913 263.479 255.827 262.72 254.751 261.935C254.528 261.773 254.479 261.46 254.642 261.237ZM346.7 261.128C346.923 260.965 347.235 261.014 347.398 261.237C347.561 261.46 347.512 261.774 347.29 261.936C346.214 262.721 345.128 263.479 344.033 264.211C343.803 264.364 343.493 264.302 343.339 264.073C343.186 263.844 343.248 263.533 343.477 263.38C344.56 262.656 345.635 261.905 346.7 261.128ZM248.457 256.291C248.636 256.082 248.951 256.057 249.161 256.236C250.167 257.097 251.184 257.935 252.209 258.747C252.425 258.918 252.462 259.233 252.291 259.449C252.119 259.665 251.805 259.701 251.588 259.53C250.553 258.71 249.527 257.865 248.511 256.996C248.301 256.816 248.277 256.501 248.457 256.291ZM352.879 256.236C353.089 256.057 353.405 256.081 353.584 256.291C353.764 256.501 353.739 256.816 353.53 256.996C352.514 257.865 351.487 258.71 350.452 259.53C350.235 259.701 349.921 259.665 349.75 259.449C349.578 259.233 349.615 258.918 349.832 258.747C350.857 257.935 351.873 257.097 352.879 256.236ZM242.663 250.914C242.856 250.718 243.173 250.715 243.37 250.909C244.31 251.837 245.261 252.743 246.221 253.626C246.424 253.813 246.437 254.13 246.25 254.333C246.064 254.536 245.747 254.549 245.543 254.362C244.575 253.471 243.616 252.557 242.667 251.621C242.471 251.427 242.469 251.11 242.663 250.914ZM358.67 250.909C358.867 250.715 359.184 250.717 359.377 250.914C359.571 251.11 359.569 251.427 359.373 251.621C358.424 252.557 357.465 253.471 356.497 254.362C356.294 254.549 355.978 254.536 355.791 254.333C355.604 254.13 355.617 253.813 355.82 253.626C356.779 252.743 357.73 251.837 358.67 250.909ZM237.239 245.152C237.445 244.969 237.761 244.987 237.945 245.193C238.821 246.177 239.706 247.141 240.601 248.085C240.791 248.285 240.783 248.602 240.583 248.792C240.382 248.982 240.065 248.973 239.875 248.773C238.973 247.822 238.081 246.849 237.198 245.857C237.014 245.651 237.033 245.336 237.239 245.152ZM364.096 245.193C364.28 244.987 364.595 244.969 364.801 245.152C365.007 245.336 365.026 245.651 364.842 245.857C363.959 246.849 363.067 247.822 362.165 248.773C361.975 248.974 361.658 248.982 361.458 248.792C361.257 248.602 361.249 248.285 361.439 248.085C362.334 247.141 363.22 246.177 364.096 245.193ZM232.177 239.058C232.394 238.888 232.709 238.926 232.879 239.142C233.699 240.182 234.528 241.203 235.367 242.205C235.544 242.417 235.516 242.732 235.304 242.909C235.092 243.086 234.776 243.058 234.599 242.847C233.754 241.837 232.919 240.808 232.094 239.761C231.923 239.544 231.96 239.229 232.177 239.058ZM369.161 239.142C369.332 238.926 369.647 238.888 369.864 239.058C370.08 239.229 370.117 239.544 369.947 239.761C369.122 240.808 368.286 241.837 367.441 242.847C367.264 243.058 366.949 243.086 366.737 242.909C366.525 242.732 366.497 242.417 366.674 242.205C367.513 241.203 368.342 240.182 369.161 239.142ZM227.471 232.685C227.697 232.527 228.009 232.582 228.167 232.807C228.931 233.894 229.704 234.964 230.487 236.016C230.651 236.238 230.605 236.551 230.383 236.716C230.162 236.88 229.849 236.835 229.684 236.613C228.896 235.553 228.117 234.476 227.349 233.383C227.19 233.157 227.245 232.844 227.471 232.685ZM373.873 232.807C374.031 232.582 374.343 232.527 374.569 232.685C374.795 232.844 374.849 233.157 374.691 233.383C373.923 234.476 373.144 235.553 372.356 236.613C372.191 236.835 371.878 236.88 371.657 236.716C371.435 236.551 371.389 236.238 371.554 236.016C372.337 234.964 373.11 233.894 373.873 232.807ZM223.118 226.086C223.351 225.939 223.66 226.009 223.807 226.243C224.512 227.364 225.226 228.471 225.951 229.561C226.103 229.791 226.041 230.102 225.811 230.255C225.581 230.408 225.27 230.345 225.118 230.115C224.389 229.017 223.67 227.904 222.96 226.775C222.814 226.541 222.884 226.233 223.118 226.086ZM378.233 226.243C378.38 226.009 378.689 225.939 378.922 226.086C379.156 226.233 379.226 226.542 379.08 226.775C378.37 227.904 377.651 229.017 376.922 230.115C376.77 230.345 376.459 230.407 376.229 230.255C375.999 230.102 375.937 229.791 376.089 229.561C376.814 228.471 377.528 227.365 378.233 226.243ZM219.092 219.276C219.333 219.141 219.638 219.226 219.774 219.467C220.423 220.618 221.081 221.756 221.75 222.879C221.891 223.116 221.813 223.423 221.576 223.564C221.339 223.705 221.031 223.627 220.89 223.391C220.218 222.26 219.556 221.115 218.903 219.957C218.767 219.716 218.852 219.412 219.092 219.276ZM382.267 219.467C382.403 219.226 382.707 219.141 382.948 219.276C383.188 219.412 383.273 219.717 383.138 219.957C382.485 221.115 381.822 222.26 381.15 223.39C381.009 223.627 380.702 223.705 380.464 223.564C380.227 223.423 380.15 223.116 380.291 222.879C380.959 221.756 381.618 220.618 382.267 219.467ZM215.384 212.285C215.631 212.161 215.932 212.259 216.056 212.506C216.652 213.683 217.257 214.847 217.872 215.999C218.001 216.242 217.909 216.546 217.666 216.676C217.422 216.805 217.12 216.713 216.99 216.47C216.372 215.312 215.762 214.141 215.164 212.957C215.039 212.711 215.138 212.41 215.384 212.285ZM385.984 212.506C386.109 212.259 386.409 212.161 386.656 212.285C386.902 212.41 387.001 212.711 386.876 212.957C386.278 214.14 385.669 215.312 385.051 216.47C384.921 216.713 384.618 216.805 384.375 216.676C384.131 216.546 384.039 216.242 384.168 215.999C384.783 214.847 385.389 213.683 385.984 212.506ZM211.983 205.139C212.234 205.025 212.531 205.135 212.645 205.387C213.189 206.586 213.743 207.774 214.306 208.95C214.425 209.199 214.32 209.498 214.071 209.617C213.822 209.736 213.523 209.631 213.404 209.382C212.838 208.2 212.282 207.005 211.735 205.8C211.621 205.548 211.732 205.253 211.983 205.139ZM389.395 205.387C389.509 205.135 389.806 205.025 390.057 205.139C390.308 205.253 390.42 205.548 390.306 205.8C389.759 207.005 389.202 208.2 388.636 209.382C388.517 209.631 388.218 209.736 387.969 209.617C387.72 209.498 387.615 209.199 387.734 208.95C388.297 207.774 388.851 206.586 389.395 205.387ZM208.879 197.856C209.135 197.753 209.427 197.876 209.531 198.132C210.026 199.353 210.531 200.565 211.046 201.765C211.155 202.018 211.038 202.312 210.785 202.421C210.531 202.53 210.236 202.412 210.127 202.158C209.61 200.952 209.102 199.735 208.604 198.508C208.5 198.252 208.624 197.96 208.879 197.856ZM392.51 198.132C392.614 197.876 392.905 197.753 393.161 197.856C393.416 197.96 393.54 198.252 393.436 198.508C392.938 199.735 392.43 200.952 391.913 202.158C391.804 202.412 391.51 202.529 391.256 202.421C391.003 202.312 390.885 202.018 390.994 201.765C391.509 200.564 392.015 199.353 392.51 198.132ZM206.063 190.458C206.323 190.364 206.61 190.498 206.704 190.758C207.152 191.999 207.611 193.23 208.079 194.451C208.177 194.709 208.048 194.998 207.791 195.097C207.533 195.195 207.244 195.067 207.145 194.809C206.675 193.582 206.214 192.344 205.763 191.098C205.67 190.838 205.804 190.552 206.063 190.458ZM395.337 190.758C395.431 190.498 395.717 190.364 395.977 190.458C396.236 190.552 396.371 190.838 396.277 191.098C395.826 192.344 395.365 193.581 394.895 194.808C394.796 195.066 394.507 195.195 394.25 195.097C393.992 194.998 393.863 194.709 393.961 194.451C394.429 193.23 394.889 191.999 395.337 190.758ZM203.527 182.959C203.79 182.875 204.071 183.019 204.156 183.282C204.559 184.539 204.971 185.788 205.393 187.027C205.482 187.288 205.343 187.573 205.082 187.662C204.82 187.751 204.536 187.611 204.447 187.349C204.023 186.105 203.608 184.851 203.204 183.588C203.119 183.325 203.264 183.043 203.527 182.959ZM398.513 182.959C398.776 183.043 398.922 183.325 398.837 183.588C398.433 184.851 398.017 186.105 397.593 187.349C397.504 187.611 397.22 187.751 396.958 187.662C396.697 187.573 396.558 187.288 396.647 187.027C397.069 185.788 397.482 184.539 397.885 183.282C397.97 183.02 398.25 182.875 398.513 182.959ZM201.262 175.374C201.528 175.299 201.805 175.454 201.879 175.72C202.238 176.991 202.606 178.253 202.983 179.508C203.062 179.772 202.912 180.051 202.648 180.131C202.384 180.21 202.105 180.06 202.026 179.796C201.647 178.536 201.277 177.268 200.917 175.991C200.843 175.725 200.997 175.449 201.262 175.374ZM400.778 175.374C401.043 175.449 401.198 175.725 401.124 175.991C400.764 177.268 400.394 178.536 400.015 179.796C399.936 180.06 399.656 180.21 399.392 180.131C399.128 180.051 398.978 179.772 399.057 179.508C399.435 178.253 399.802 176.991 400.161 175.72C400.236 175.454 400.512 175.299 400.778 175.374ZM199.264 167.715C199.532 167.649 199.803 167.814 199.869 168.082C200.183 169.364 200.507 170.639 200.84 171.906C200.911 172.173 200.751 172.447 200.484 172.517C200.217 172.587 199.944 172.428 199.874 172.161C199.539 170.888 199.213 169.607 198.897 168.319C198.831 168.051 198.996 167.78 199.264 167.715ZM402.777 167.715C403.045 167.781 403.209 168.051 403.143 168.319C402.827 169.607 402.503 170.888 402.167 172.161C402.097 172.428 401.823 172.588 401.556 172.517C401.289 172.447 401.129 172.173 401.2 171.906C401.533 170.639 401.858 169.364 402.172 168.082C402.238 167.814 402.509 167.649 402.777 167.715ZM197.524 159.993C197.794 159.936 198.06 160.11 198.117 160.38C198.388 161.671 198.669 162.956 198.959 164.234C199.021 164.503 198.852 164.772 198.583 164.833C198.313 164.894 198.046 164.725 197.985 164.456C197.693 163.173 197.411 161.883 197.138 160.586C197.081 160.316 197.254 160.05 197.524 159.993ZM404.516 159.993C404.786 160.05 404.96 160.316 404.903 160.586C404.63 161.883 404.348 163.173 404.056 164.456C403.995 164.725 403.727 164.894 403.458 164.833C403.188 164.772 403.019 164.504 403.081 164.234C403.371 162.956 403.653 161.671 403.924 160.38C403.981 160.11 404.246 159.936 404.516 159.993ZM196.039 152.219C196.31 152.171 196.571 152.353 196.619 152.625C196.848 153.924 197.087 155.217 197.335 156.504C197.388 156.775 197.21 157.037 196.939 157.09C196.668 157.142 196.405 156.964 196.353 156.693C196.104 155.401 195.864 154.103 195.633 152.799C195.585 152.527 195.767 152.267 196.039 152.219ZM406.001 152.22C406.273 152.268 406.455 152.527 406.407 152.799C406.176 154.103 405.937 155.401 405.687 156.693C405.635 156.964 405.372 157.142 405.101 157.09C404.83 157.037 404.653 156.775 404.706 156.504C404.954 155.217 405.193 153.924 405.422 152.625C405.47 152.353 405.73 152.172 406.001 152.22ZM194.803 144.401C195.076 144.362 195.329 144.552 195.369 144.825C195.557 146.13 195.754 147.43 195.961 148.724C196.005 148.996 195.82 149.252 195.547 149.296C195.275 149.339 195.018 149.154 194.974 148.882C194.766 147.583 194.568 146.278 194.379 144.968C194.34 144.694 194.53 144.441 194.803 144.401ZM407.238 144.401C407.511 144.441 407.701 144.694 407.662 144.968C407.473 146.278 407.274 147.583 407.066 148.882C407.022 149.154 406.766 149.339 406.494 149.296C406.221 149.252 406.035 148.996 406.079 148.724C406.286 147.43 406.483 146.13 406.671 144.825C406.711 144.552 406.964 144.362 407.238 144.401ZM193.812 136.549C194.086 136.518 194.334 136.716 194.365 136.99C194.512 138.299 194.669 139.604 194.835 140.902C194.87 141.176 194.677 141.427 194.403 141.462C194.129 141.497 193.878 141.303 193.843 141.029C193.676 139.725 193.518 138.416 193.371 137.101C193.34 136.827 193.538 136.58 193.812 136.549ZM408.229 136.549C408.503 136.58 408.7 136.827 408.669 137.101C408.522 138.416 408.364 139.725 408.197 141.029C408.162 141.303 407.911 141.497 407.637 141.462C407.364 141.427 407.171 141.176 407.206 140.902C407.372 139.604 407.529 138.299 407.676 136.99C407.707 136.716 407.955 136.518 408.229 136.549ZM193.062 128.669C193.337 128.646 193.579 128.852 193.601 129.127C193.708 130.439 193.825 131.746 193.952 133.049C193.978 133.323 193.777 133.568 193.502 133.595C193.228 133.621 192.983 133.42 192.957 133.145C192.83 131.838 192.713 130.525 192.605 129.208C192.583 128.933 192.787 128.691 193.062 128.669ZM408.978 128.669C409.253 128.691 409.458 128.933 409.436 129.208C409.328 130.525 409.21 131.838 409.083 133.145C409.057 133.42 408.812 133.621 408.538 133.595C408.263 133.568 408.062 133.323 408.088 133.049C408.215 131.746 408.332 130.439 408.439 129.127C408.461 128.852 408.703 128.646 408.978 128.669ZM192.55 120.769C192.826 120.755 193.061 120.967 193.076 121.243C193.144 122.558 193.221 123.87 193.308 125.177C193.326 125.452 193.118 125.689 192.842 125.708C192.567 125.726 192.329 125.518 192.31 125.243C192.223 123.931 192.146 122.615 192.078 121.295C192.063 121.019 192.275 120.784 192.55 120.769ZM409.49 120.769C409.765 120.784 409.978 121.019 409.963 121.295C409.895 122.615 409.817 123.931 409.73 125.243C409.711 125.518 409.473 125.726 409.198 125.708C408.922 125.69 408.714 125.452 408.732 125.177C408.819 123.87 408.896 122.558 408.964 121.243C408.979 120.967 409.214 120.755 409.49 120.769ZM192.842 89.1122C193.118 89.1307 193.326 89.3682 193.308 89.6434C193.221 90.9501 193.144 92.2617 193.076 93.577C193.061 93.8526 192.826 94.0647 192.55 94.0507C192.275 94.0362 192.063 93.8009 192.078 93.5253C192.146 92.205 192.223 90.8886 192.31 89.577C192.329 89.3018 192.567 89.094 192.842 89.1122ZM409.198 89.1122C409.473 89.094 409.711 89.3018 409.73 89.577C409.817 90.8886 409.895 92.205 409.963 93.5253C409.978 93.8009 409.765 94.0362 409.49 94.0507C409.214 94.0649 408.979 93.8527 408.964 93.577C408.896 92.2619 408.819 90.9509 408.732 89.6444C408.714 89.3689 408.922 89.1306 409.198 89.1122ZM193.502 81.2255C193.777 81.2523 193.978 81.4966 193.952 81.7714C193.825 83.0738 193.708 84.3812 193.601 85.6932C193.579 85.9684 193.337 86.1736 193.062 86.1512C192.787 86.1287 192.583 85.8873 192.605 85.6122C192.713 84.295 192.83 82.9823 192.957 81.6747C192.983 81.3999 193.228 81.1988 193.502 81.2255ZM408.538 81.2255C408.812 81.199 409.057 81.4 409.083 81.6747C409.21 82.9823 409.328 84.295 409.436 85.6122C409.458 85.8872 409.253 86.1286 408.978 86.1512C408.703 86.1736 408.461 85.9684 408.439 85.6932C408.332 84.3812 408.215 83.0738 408.088 81.7714C408.062 81.4967 408.263 81.2523 408.538 81.2255ZM194.403 73.3583C194.677 73.3935 194.87 73.6441 194.835 73.9178C194.669 75.2165 194.512 76.5207 194.365 77.83C194.334 78.1042 194.086 78.3019 193.812 78.2714C193.538 78.2405 193.34 77.993 193.371 77.7186C193.518 76.4042 193.676 75.0948 193.843 73.7909C193.878 73.517 194.129 73.3232 194.403 73.3583ZM407.637 73.3583C407.911 73.3234 408.162 73.5171 408.197 73.7909C408.364 75.0948 408.522 76.4042 408.669 77.7186C408.7 77.9928 408.503 78.2402 408.229 78.2714C407.955 78.3022 407.707 78.1044 407.676 77.83C407.529 76.5207 407.372 75.2165 407.206 73.9178C407.171 73.6441 407.364 73.3935 407.637 73.3583ZM195.547 65.5243C195.82 65.5682 196.005 65.8242 195.961 66.0966C195.754 67.3901 195.557 68.6898 195.369 69.995C195.329 70.2681 195.076 70.4577 194.803 70.4188C194.53 70.3795 194.34 70.1257 194.379 69.8524C194.568 68.5421 194.766 67.237 194.974 65.9384C195.018 65.6659 195.275 65.4807 195.547 65.5243ZM406.494 65.5243C406.766 65.481 407.022 65.6661 407.066 65.9384C407.274 67.2371 407.473 68.5421 407.662 69.8524C407.701 70.1256 407.511 70.3793 407.238 70.4188C406.964 70.4582 406.711 70.2683 406.671 69.995C406.483 68.6899 406.286 67.3901 406.079 66.0966C406.035 65.824 406.221 65.5679 406.494 65.5243ZM405.101 57.7303C405.372 57.6782 405.635 57.8558 405.687 58.1268C405.936 59.4186 406.176 60.7169 406.407 62.0214C406.455 62.2932 406.273 62.5533 406.001 62.6014C405.73 62.6493 405.47 62.4671 405.422 62.1952C405.193 60.8959 404.954 59.6028 404.706 58.3163C404.653 58.0453 404.83 57.7829 405.101 57.7303ZM196.939 57.7303C197.21 57.7828 197.388 58.0453 197.335 58.3163C197.087 59.6028 196.848 60.896 196.619 62.1952C196.571 62.467 196.31 62.6483 196.039 62.6005C195.767 62.5523 195.585 62.2932 195.633 62.0214C195.864 60.7169 196.104 59.4186 196.353 58.1268C196.405 57.8557 196.668 57.678 196.939 57.7303ZM198.583 49.9872C198.852 50.0485 199.021 50.3167 198.959 50.5858C198.669 51.8636 198.388 53.1486 198.117 54.4403C198.06 54.7104 197.794 54.8836 197.524 54.827C197.254 54.7701 197.081 54.5044 197.138 54.2343C197.411 52.9373 197.693 51.6472 197.985 50.3641C198.046 50.095 198.313 49.9262 198.583 49.9872ZM403.458 49.9872C403.727 49.9262 403.995 50.095 404.056 50.3641C404.348 51.6472 404.63 52.9373 404.903 54.2343C404.96 54.5044 404.786 54.7701 404.516 54.827C404.246 54.8838 403.981 54.7104 403.924 54.4403C403.653 53.1486 403.371 51.8636 403.081 50.5858C403.019 50.3166 403.188 50.0484 403.458 49.9872ZM200.484 42.3026C200.751 42.373 200.911 42.647 200.84 42.9139C200.507 44.181 200.183 45.4559 199.869 46.7382C199.803 47.0061 199.532 47.1707 199.264 47.1053C198.996 47.0396 198.832 46.7689 198.897 46.5009C199.213 45.2129 199.539 43.9318 199.874 42.6591C199.944 42.3923 200.217 42.2326 200.484 42.3026ZM401.556 42.3026C401.823 42.2326 402.097 42.3922 402.167 42.6591C402.503 43.9318 402.827 45.2129 403.143 46.5009C403.209 46.7688 403.045 47.0394 402.777 47.1053C402.509 47.1711 402.238 47.0063 402.172 46.7382C401.858 45.4558 401.533 44.1811 401.2 42.9139C401.129 42.6469 401.289 42.3729 401.556 42.3026ZM202.648 34.6893C202.912 34.769 203.062 35.0481 202.983 35.3124C202.606 36.5667 202.238 37.8295 201.879 39.1005C201.805 39.3662 201.528 39.5209 201.262 39.4462C200.997 39.3711 200.843 39.0946 200.917 38.829C201.277 37.5525 201.647 36.2841 202.026 35.0243C202.105 34.7601 202.384 34.61 202.648 34.6893ZM399.392 34.6893C399.656 34.61 399.936 34.7599 400.015 35.0243C400.394 36.2842 400.764 37.5525 401.124 38.829C401.198 39.0946 401.043 39.3711 400.778 39.4462C400.512 39.5211 400.236 39.3662 400.161 39.1005C399.802 37.8295 399.435 36.5667 399.057 35.3124C398.978 35.048 399.128 34.7689 399.392 34.6893ZM204.447 27.4706C204.536 27.2093 204.82 27.0691 205.082 27.1581C205.343 27.2472 205.482 27.5316 205.393 27.7928C204.971 29.032 204.559 30.2807 204.156 31.538C204.071 31.8007 203.79 31.9453 203.527 31.8612C203.264 31.7769 203.119 31.4953 203.204 31.2323C203.608 29.9695 204.023 28.7153 204.447 27.4706ZM396.958 27.1581C397.22 27.0692 397.504 27.2093 397.593 27.4706C398.017 28.7154 398.433 29.9694 398.837 31.2323C398.922 31.4952 398.776 31.7768 398.513 31.8612C398.25 31.9452 397.97 31.8005 397.885 31.538C397.482 30.2807 397.069 29.032 396.647 27.7928C396.558 27.5316 396.697 27.2472 396.958 27.1581ZM207.145 20.0116C207.244 19.7539 207.533 19.6249 207.791 19.7235C208.048 19.8224 208.177 20.1113 208.079 20.369C207.611 21.5901 207.152 22.8215 206.704 24.0624C206.61 24.322 206.323 24.4559 206.063 24.3622C205.804 24.2682 205.669 23.982 205.763 23.7225C206.214 22.4759 206.675 21.2386 207.145 20.0116ZM394.25 19.7235C394.507 19.6249 394.796 19.7538 394.895 20.0116C395.365 21.2386 395.826 22.4758 396.277 23.7225C396.371 23.9821 396.236 24.2682 395.977 24.3622C395.717 24.456 395.431 24.3218 395.337 24.0624C394.889 22.8215 394.429 21.5902 393.961 20.369C393.863 20.1112 393.992 19.8224 394.25 19.7235ZM210.127 12.662C210.236 12.4083 210.531 12.2904 210.785 12.3993C211.038 12.5083 211.155 12.802 211.046 13.0555C210.531 14.2555 210.026 15.4669 209.531 16.6884C209.427 16.9441 209.135 17.0674 208.879 16.9637C208.624 16.8599 208.5 16.5683 208.604 16.3124C209.102 15.0849 209.61 13.868 210.127 12.662ZM391.256 12.3993C391.51 12.2908 391.804 12.4084 391.913 12.662C392.43 13.868 392.938 15.0849 393.436 16.3124C393.54 16.5681 393.416 16.8598 393.161 16.9637C392.905 17.0673 392.614 16.9441 392.51 16.6884C392.015 15.4668 391.509 14.2556 390.994 13.0555C390.885 12.8018 391.003 12.5082 391.256 12.3993ZM213.404 5.43835C213.523 5.18949 213.822 5.08398 214.071 5.203C214.32 5.32231 214.425 5.62107 214.306 5.87C213.743 7.04589 213.189 8.23416 212.645 9.43347C212.531 9.68467 212.234 9.79633 211.983 9.6825C211.732 9.56838 211.621 9.27179 211.735 9.02039C212.282 7.81488 212.838 6.62049 213.404 5.43835ZM387.969 5.203C388.218 5.0839 388.517 5.18938 388.636 5.43835C389.202 6.62052 389.759 7.81486 390.306 9.02039C390.42 9.27162 390.308 9.56737 390.057 9.68152C389.806 9.79553 389.509 9.68474 389.395 9.43347C388.851 8.23415 388.297 7.0459 387.734 5.87C387.615 5.621 387.72 5.32225 387.969 5.203ZM216.99 -1.64954C217.12 -1.89292 217.422 -1.98531 217.666 -1.85559C217.909 -1.72551 218.001 -1.42234 217.872 -1.17883C217.257 -0.0273589 216.652 1.13719 216.056 2.31433C215.932 2.56065 215.631 2.65948 215.384 2.53503C215.138 2.41042 215.039 2.10951 215.164 1.86316C215.762 0.679519 216.372 -0.491514 216.99 -1.64954ZM384.375 -1.85559C384.618 -1.98539 384.921 -1.89304 385.051 -1.64954C385.669 -0.491613 386.278 0.679619 386.876 1.86316C387.001 2.10945 386.902 2.41037 386.656 2.53503C386.409 2.65945 386.109 2.56058 385.984 2.31433C385.389 1.13722 384.783 -0.0273842 384.168 -1.17883C384.039 -1.42241 384.131 -1.72557 384.375 -1.85559ZM220.89 -8.56946C221.031 -8.80664 221.338 -8.88536 221.576 -8.74426C221.813 -8.60304 221.891 -8.29593 221.75 -8.05872C221.081 -6.9356 220.423 -5.79789 219.774 -4.64661C219.638 -4.40611 219.333 -4.32077 219.092 -4.45618C218.852 -4.59172 218.767 -4.89639 218.902 -5.13684C219.555 -6.29493 220.218 -7.43949 220.89 -8.56946ZM380.464 -8.74426C380.701 -8.8852 381.009 -8.80732 381.15 -8.57043C381.822 -7.44034 382.485 -6.29506 383.138 -5.13684C383.273 -4.89642 383.188 -4.59174 382.948 -4.45618C382.707 -4.32073 382.403 -4.40618 382.267 -4.64661C381.618 -5.79799 380.959 -6.9355 380.291 -8.05872C380.15 -8.29594 380.227 -8.60305 380.464 -8.74426ZM225.118 -15.295C225.27 -15.525 225.581 -15.5874 225.811 -15.4347C226.041 -15.2819 226.103 -14.9713 225.951 -14.7413C225.226 -13.6509 224.512 -12.5444 223.807 -11.423C223.66 -11.1894 223.351 -11.1191 223.118 -11.2657C222.884 -11.4127 222.814 -11.7214 222.96 -11.9552C223.67 -13.0838 224.389 -14.1974 225.118 -15.295ZM376.229 -15.4347C376.459 -15.5873 376.77 -15.525 376.922 -15.295C377.651 -14.1974 378.37 -13.0838 379.08 -11.9552C379.226 -11.7215 379.156 -11.4127 378.922 -11.2657C378.689 -11.1191 378.38 -11.1894 378.233 -11.423C377.528 -12.5444 376.814 -13.6508 376.089 -14.7413C375.937 -14.9713 375.999 -15.2819 376.229 -15.4347ZM229.684 -21.7931C229.849 -22.0145 230.162 -22.0603 230.383 -21.8956C230.605 -21.7309 230.651 -21.4179 230.487 -21.1964C229.704 -20.1439 228.931 -19.074 228.167 -17.9874C228.009 -17.7616 227.697 -17.707 227.471 -17.8654C227.245 -18.0241 227.19 -18.3366 227.349 -18.5626C228.117 -19.6564 228.896 -20.7333 229.684 -21.7931ZM371.657 -21.8956C371.878 -22.0602 372.191 -22.0144 372.356 -21.7931C373.144 -20.7334 373.923 -19.6564 374.691 -18.5626C374.849 -18.3367 374.795 -18.0241 374.569 -17.8654C374.343 -17.7071 374.031 -17.7617 373.873 -17.9874C373.11 -19.0739 372.337 -20.144 371.554 -21.1964C371.389 -21.418 371.435 -21.7308 371.657 -21.8956ZM234.599 -28.0265C234.776 -28.2381 235.092 -28.2662 235.304 -28.089C235.516 -27.9118 235.544 -27.5965 235.367 -27.3849C234.528 -26.3827 233.699 -25.3617 232.879 -24.3224C232.709 -24.1057 232.394 -24.0679 232.177 -24.2384C231.96 -24.4093 231.923 -24.7237 232.094 -24.9406C232.919 -25.9874 233.754 -27.0167 234.599 -28.0265ZM366.737 -28.089C366.949 -28.266 367.264 -28.2382 367.441 -28.0265C368.286 -27.0167 369.122 -25.9875 369.947 -24.9406C370.117 -24.7238 370.08 -24.4092 369.864 -24.2384C369.647 -24.0675 369.332 -24.1056 369.161 -24.3224C368.342 -25.3616 367.513 -26.3828 366.674 -27.3849C366.497 -27.5967 366.525 -27.9118 366.737 -28.089ZM239.875 -33.9532C240.065 -34.1534 240.382 -34.1616 240.583 -33.9718C240.783 -33.7818 240.791 -33.4651 240.601 -33.2648C239.706 -32.3212 238.821 -31.3571 237.945 -30.3732C237.761 -30.167 237.445 -30.148 237.239 -30.3312C237.033 -30.5147 237.014 -30.831 237.198 -31.0372C238.081 -32.0291 238.973 -33.0018 239.875 -33.9532ZM361.458 -33.9718C361.658 -34.1616 361.975 -34.1534 362.165 -33.9532C363.067 -33.0018 363.959 -32.0291 364.842 -31.0372C365.026 -30.831 365.007 -30.5147 364.801 -30.3312C364.595 -30.148 364.28 -30.1672 364.096 -30.3732C363.22 -31.3573 362.334 -32.3211 361.439 -33.2648C361.249 -33.4651 361.257 -33.7818 361.458 -33.9718ZM245.543 -39.5421C245.747 -39.729 246.064 -39.716 246.25 -39.5128C246.437 -39.3097 246.424 -38.9928 246.221 -38.8058C245.261 -37.9225 244.31 -37.0169 243.37 -36.089C243.173 -35.8954 242.856 -35.8975 242.663 -36.0939C242.469 -36.2904 242.471 -36.607 242.667 -36.8009C243.616 -37.7367 244.575 -38.6509 245.543 -39.5421ZM355.791 -39.5128C355.978 -39.7156 356.294 -39.7289 356.497 -39.5421C357.465 -38.6509 358.424 -37.7368 359.373 -36.8009C359.569 -36.607 359.571 -36.2904 359.377 -36.0939C359.184 -35.8973 358.867 -35.8953 358.67 -36.089C357.73 -37.0168 356.779 -37.9226 355.82 -38.8058C355.617 -38.9928 355.604 -39.3096 355.791 -39.5128ZM251.588 -44.7101C251.805 -44.8813 252.119 -44.8453 252.291 -44.629C252.462 -44.4128 252.425 -44.0984 252.209 -43.9269C251.184 -43.1149 250.167 -42.2773 249.161 -41.4161C248.951 -41.237 248.636 -41.2615 248.457 -41.4708C248.277 -41.6806 248.301 -41.9964 248.511 -42.1759C249.527 -43.0451 250.553 -43.8901 251.588 -44.7101ZM349.75 -44.629C349.921 -44.8454 350.236 -44.8815 350.453 -44.7101C351.488 -43.8902 352.514 -43.0451 353.53 -42.1759C353.739 -41.9964 353.764 -41.6805 353.584 -41.4708C353.405 -41.2611 353.089 -41.2368 352.879 -41.4161C351.873 -42.2772 350.857 -43.114 349.832 -43.9259C349.615 -44.0973 349.578 -44.4126 349.75 -44.629ZM258.008 -49.3907C258.238 -49.5437 258.548 -49.4824 258.702 -49.2531C258.855 -49.0235 258.792 -48.7121 258.563 -48.5587C257.48 -47.8352 256.405 -47.0845 255.34 -46.3077C255.117 -46.1453 254.805 -46.1943 254.642 -46.4171C254.479 -46.6402 254.528 -46.9526 254.751 -47.1154C255.827 -47.9003 256.913 -48.6593 258.008 -49.3907ZM343.339 -49.2531C343.493 -49.4822 343.803 -49.544 344.033 -49.3907C345.128 -48.6594 346.214 -47.9002 347.29 -47.1154C347.512 -46.9525 347.56 -46.64 347.398 -46.4171C347.235 -46.1943 346.923 -46.1453 346.7 -46.3077C345.635 -47.0846 344.56 -47.8351 343.477 -48.5587C343.247 -48.7121 343.186 -49.0234 343.339 -49.2531ZM264.815 -53.5216C265.057 -53.654 265.361 -53.5645 265.494 -53.3224C265.626 -53.0802 265.537 -52.7763 265.295 -52.6437C264.151 -52.0178 263.016 -51.3627 261.889 -50.6788C261.653 -50.5356 261.345 -50.6109 261.202 -50.8468C261.059 -51.0827 261.134 -51.39 261.37 -51.5333C262.509 -52.2249 263.657 -52.8884 264.815 -53.5216ZM336.546 -53.3224C336.679 -53.5645 336.983 -53.654 337.225 -53.5216C338.383 -52.8884 339.531 -52.2249 340.67 -51.5333C340.906 -51.39 340.981 -51.0827 340.838 -50.8468C340.695 -50.6109 340.388 -50.5358 340.152 -50.6788C339.025 -51.3627 337.89 -52.0178 336.746 -52.6437C336.503 -52.7762 336.414 -53.0801 336.546 -53.3224ZM271.971 -57.0079C272.225 -57.1165 272.519 -56.9987 272.627 -56.7452C272.736 -56.4916 272.619 -56.197 272.366 -56.088C271.164 -55.5727 269.969 -55.0264 268.784 -54.4484C268.536 -54.3274 268.236 -54.4299 268.115 -54.6779C267.994 -54.926 268.097 -55.2257 268.345 -55.3468C269.545 -55.9319 270.754 -56.4861 271.971 -57.0079ZM329.413 -56.7452C329.521 -56.9987 329.815 -57.1164 330.069 -57.0079C331.286 -56.4862 332.495 -55.9318 333.695 -55.3468C333.943 -55.2257 334.046 -54.926 333.925 -54.6779C333.804 -54.4301 333.505 -54.3277 333.257 -54.4484C332.072 -55.0264 330.877 -55.5727 329.675 -56.088C329.421 -56.1968 329.304 -56.4914 329.413 -56.7452ZM279.436 -59.7687C279.7 -59.8508 279.98 -59.704 280.062 -59.4406C280.144 -59.1771 279.997 -58.897 279.734 -58.8146C278.487 -58.4253 277.247 -58.0018 276.016 -57.546C275.757 -57.4504 275.469 -57.5831 275.374 -57.8419C275.278 -58.1008 275.411 -58.3887 275.669 -58.4845C276.917 -58.9462 278.173 -59.3742 279.436 -59.7687ZM322.605 -59.7687C323.868 -59.3742 325.124 -58.9462 326.372 -58.4845C326.63 -58.3885 326.762 -58.1007 326.667 -57.8419C326.571 -57.583 326.283 -57.4503 326.024 -57.546C324.793 -58.0018 323.553 -58.4253 322.306 -58.8146C322.043 -58.897 321.896 -59.1771 321.978 -59.4406C322.06 -59.7041 322.341 -59.851 322.605 -59.7687ZM287.156 -61.7325C287.427 -61.7858 287.69 -61.6097 287.744 -61.339C287.797 -61.0683 287.621 -60.8048 287.35 -60.7511C286.066 -60.4977 284.787 -60.2092 283.517 -59.8859C283.25 -59.8178 282.977 -59.9796 282.909 -60.2472C282.841 -60.5146 283.003 -60.7864 283.27 -60.8546C284.558 -61.1823 285.853 -61.4756 287.156 -61.7325ZM314.884 -61.7325C316.187 -61.4756 317.482 -61.1824 318.77 -60.8546C319.037 -60.7864 319.199 -60.5146 319.131 -60.2472C319.063 -59.9798 318.791 -59.8182 318.524 -59.8859C317.254 -60.2092 315.975 -60.4977 314.691 -60.7511C314.42 -60.8046 314.244 -61.0681 314.297 -61.339C314.351 -61.6096 314.614 -61.7859 314.884 -61.7325ZM295.046 -62.84C295.321 -62.8629 295.563 -62.6587 295.586 -62.3839C295.609 -62.1089 295.405 -61.8662 295.13 -61.8429C293.822 -61.733 292.519 -61.5874 291.223 -61.4054C290.95 -61.3671 290.697 -61.5578 290.659 -61.8312C290.62 -62.1045 290.811 -62.3572 291.084 -62.3956C292.398 -62.5802 293.719 -62.7286 295.046 -62.84ZM306.994 -62.84C308.321 -62.7285 309.642 -62.5802 310.957 -62.3956C311.23 -62.357 311.42 -62.1043 311.382 -61.8312C311.344 -61.5578 311.09 -61.3672 310.817 -61.4054C309.521 -61.5874 308.219 -61.7331 306.911 -61.8429C306.636 -61.866 306.431 -62.108 306.454 -62.3829C306.477 -62.658 306.719 -62.8629 306.994 -62.84ZM301.02 -63.09C301.688 -63.09 302.354 -63.0802 303.019 -63.0616C303.295 -63.0538 303.513 -62.8239 303.505 -62.548C303.498 -62.2722 303.267 -62.0551 302.992 -62.0626C302.336 -62.081 301.678 -62.09 301.02 -62.09C300.362 -62.09 299.705 -62.0809 299.049 -62.0626C298.773 -62.0549 298.544 -62.2721 298.536 -62.548C298.528 -62.824 298.745 -63.0539 299.021 -63.0616C299.686 -63.0802 300.352 -63.09 301.02 -63.09Z" fill="#424252"/>
<path d="M261.656 118.46C262.298 160.973 266.611 199.218 273.258 227.504C276.868 242.866 281.16 255.263 285.907 263.807C288.281 268.08 290.756 271.366 293.297 273.579C295.835 275.789 298.416 276.91 301.021 276.91C303.625 276.91 306.205 275.789 308.743 273.579C311.284 271.366 313.76 268.08 316.134 263.807C320.881 255.263 325.172 242.866 328.782 227.504C335.429 199.218 339.742 160.973 340.384 118.46H341.384C340.742 161.032 336.424 199.356 329.756 227.732C326.136 243.134 321.82 255.633 317.008 264.294C314.602 268.623 312.06 272.017 309.4 274.333C306.737 276.652 303.932 277.91 301.021 277.91C298.109 277.91 295.304 276.652 292.641 274.333C289.981 272.017 287.439 268.624 285.033 264.294C280.221 255.633 275.904 243.134 272.284 227.732C265.616 199.356 261.298 161.032 260.656 118.46H261.656ZM301.021 -63.09C303.932 -63.0898 306.737 -61.8317 309.4 -59.5128C312.06 -57.1967 314.602 -53.8033 317.008 -49.4738C321.82 -40.8133 326.136 -28.3138 329.756 -12.9122C336.429 15.4862 340.749 53.8483 341.386 96.4598H340.385C339.749 53.9066 335.435 15.6244 328.782 -12.6837C325.172 -28.0456 320.881 -40.443 316.134 -48.9874C313.76 -53.2596 311.284 -56.546 308.743 -58.7589C306.205 -60.9688 303.625 -62.0898 301.021 -62.09C298.416 -62.09 295.835 -60.9688 293.297 -58.7589C290.756 -56.546 288.281 -53.2595 285.907 -48.9874C281.16 -40.443 276.868 -28.0458 273.258 -12.6837C266.605 15.6244 262.291 53.9066 261.655 96.4598H260.654C261.29 53.8483 265.611 15.4862 272.284 -12.9122C275.904 -28.3139 280.221 -40.8133 285.033 -49.4738C287.439 -53.8034 289.981 -57.1967 292.641 -59.5128C295.304 -61.8317 298.109 -63.09 301.021 -63.09Z" fill="#424252"/>
<path d="M146 107.46H456" stroke="#424252" stroke-miterlimit="10"/>
<path d="M224.5 235C228.366 235 231.5 231.866 231.5 228C231.5 224.134 228.366 221 224.5 221C220.634 221 217.5 224.134 217.5 228C217.5 231.866 220.634 235 224.5 235Z" fill="#424252"/>
</g>
<defs>
<linearGradient id="paint0_linear_459_986" x1="216" y1="0" x2="216" y2="346" gradientUnits="userSpaceOnUse">
<stop stop-color="#6100FF"/>
<stop offset="0.4" stop-color="#6100FF" stop-opacity="0"/>
</linearGradient>
</defs>
</svg>
