<svg width="570" height="180" viewBox="0 0 570 180" fill="none" xmlns="http://www.w3.org/2000/svg">
<path d="M170.506 83.4217C169.084 84.8524 167.368 85.5535 165.413 85.5535C163.458 85.5535 161.742 84.8496 160.32 83.4217C158.898 82.0537 158.185 80.4007 158.185 78.4513C158.185 76.5019 158.901 74.8319 160.32 73.4126C161.742 72.0417 163.395 71.3406 165.413 71.3406C167.431 71.3406 169.086 72.0417 170.506 73.4126C171.928 74.8319 172.64 76.5475 172.64 78.4513C172.64 80.3551 171.931 82.0566 170.506 83.4217ZM180.578 63.9278H168.975V58.7665H161.862V63.9278H150V69.4368H156.353C156.165 69.5594 155.994 69.7361 155.877 69.8529C154.637 71.0357 153.679 72.3524 152.967 73.8173C152.2 75.3534 151.852 77.0206 151.852 78.7335C151.852 80.4463 152.2 82.1164 152.967 83.5956C153.679 85.1374 154.637 86.4968 155.877 87.6254C157.065 88.8196 158.539 89.7002 160.209 90.3557C161.805 91.0568 163.52 91.3703 165.413 91.3703C167.305 91.3703 169.018 91.0568 170.694 90.3557C172.29 89.7002 173.712 88.8196 174.96 87.6254C176.149 86.4997 177.141 85.1403 177.916 83.5956C178.634 82.1164 178.993 80.5147 178.993 78.7335C178.993 76.9522 178.634 75.3506 177.916 73.8173C177.141 72.3495 176.152 71.0357 174.96 69.8529C174.781 69.7361 174.598 69.5565 174.481 69.4368H180.58V63.9278H180.578ZM166.547 105.586V95.3233H159.778V111.337H194.206V105.586H166.547ZM186.03 59.6044V69.6192H180.056V75.6013H186.03V81.9426H180.056V87.9275H186.03V98.0592H192.442V59.6072H186.03V59.6044ZM237.615 59.6044V76.9009H231.975V59.6044H225.819V91.3019C221.666 92.0144 217.525 92.3165 213.492 92.3165H209.163V67.7268H220.059V61.9043H202.825V98.1248H213.316C217.933 98.1248 222.133 97.8198 225.819 97.1016V111.337H231.972V82.7064H237.612V111.337H243.89V59.6044H237.612H237.615Z" fill="#00448D"/>
<path d="M434.884 46.6885H442.268L460.625 30.4008H434.881V46.6885H434.884ZM429.993 0L413.708 14.4494V25.4988H429.993V0Z" fill="#D5B55D"/>
<path d="M399.744 30.4042L381.39 46.6833L413.709 46.689V78.9993L429.991 64.5613V30.4042H399.744ZM334.841 106.114C333.231 107.536 331.393 108.314 329.261 108.314C327.129 108.314 325.288 107.536 323.76 106.114C322.147 104.575 321.389 102.794 321.389 100.722C321.389 98.65 322.147 96.8744 323.76 95.324C325.288 93.9019 327.135 93.1353 329.264 93.1353C331.393 93.1353 333.234 93.9019 334.844 95.324C336.374 96.8744 337.144 98.6528 337.144 100.722C337.144 102.791 336.374 104.578 334.844 106.114M352.3 85.6711H306.21V91.4224H319.3L319.183 91.5421C317.884 92.7306 316.809 94.147 316.102 95.6888C315.333 97.3447 314.982 99.0632 314.982 100.847C314.982 102.631 315.333 104.347 316.102 105.997C316.809 107.536 317.881 108.973 319.183 110.147C320.494 111.338 321.97 112.284 323.757 112.991C325.513 113.661 327.38 114.003 329.261 114C331.153 114 332.986 113.641 334.77 112.991C336.488 112.284 338.03 111.338 339.333 110.147C340.641 108.973 341.647 107.536 342.416 105.997C343.123 104.347 343.542 102.623 343.542 100.847C343.542 99.0718 343.126 97.3447 342.416 95.6888C341.647 94.147 340.641 92.7306 339.333 91.5421L339.216 91.4224H352.303V85.6711H352.3ZM339.455 74.294C334.878 71.9256 332.635 69.3806 332.635 66.6532V66.599H346.976V60.9617H311.542V66.599H325.881V66.6532C325.881 69.3806 323.578 71.9256 319.061 74.294C316.467 75.719 313.016 76.7336 308.755 77.4347L311.431 82.2939C316.575 81.4047 321.133 79.7517 325.048 77.3805C326.704 76.3688 328.126 75.3057 329.255 74.1771C330.321 75.3057 331.743 76.3659 333.459 77.3805C337.36 79.7489 341.869 81.4047 347.087 82.2939L349.755 77.4347C345.489 76.7336 342.06 75.719 339.452 74.294" fill="#00448D"/>
<path d="M394.308 59.6044V78.6879C391.587 79.0327 388.802 79.2123 385.966 79.332C386.548 75.8094 386.844 72.2441 386.844 68.673V61.6165H361.781V67.1796H380.509V69.6192C380.509 72.8169 380.212 76.1428 379.682 79.5115H356.686V85.1403H368.593V94.4426H374.937V85.1403H378.964C384.539 85.1403 389.694 84.8496 394.308 84.2425V88.9336H382.697V94.3714H394.308V99.8376H400.65V59.6044H394.308ZM372.677 105.586V97.4693H366.17V111.337H401.713V105.586H372.677Z" fill="#00448D"/>
<path d="M264.804 72.852V70.5919H253.176V64.8121H264.804V58.793H271.282V64.8121H282.217V70.5891H271.282V72.8491C271.313 77.1269 272.365 81.1568 274.402 84.9387C276.343 88.601 279.455 92.249 283.779 95.8713L279.723 100.041C275.175 96.2247 271.567 92.0609 268.908 87.5493C268.603 87.0563 268.315 86.5547 268.038 86.0474C267.756 86.5718 267.466 87.0905 267.163 87.6063C264.279 92.4314 260.58 96.6294 256.06 100.218L251.494 96.2788C255.812 92.8874 259.186 89.0912 261.614 84.8874C263.695 81.3763 264.758 77.3635 264.798 72.8548M293.096 59.6052V77.5972H300.902V83.6677H293.096V111.318H286.726V59.6052H293.096Z" fill="#00448D"/>
</svg>
