<svg width="530" height="180" viewBox="0 0 530 180" fill="none" xmlns="http://www.w3.org/2000/svg">
<path d="M181.87 83.4954L186.488 77.2202C183.061 75.5688 179.561 73.055 176.986 69.6881C174.411 66.4495 172.698 62.4862 172.698 57.7982V52.3853H164.121V57.9358C164.121 62.6881 162.471 66.9174 159.832 70.5505C157.193 74.2477 153.693 77.156 150 79.2661L155.15 85.2752C158.119 83.4954 161.024 81.2477 163.397 78.6697C165.706 76.2294 167.557 73.5138 168.675 70.945C171.378 75.9633 175.538 80.0642 181.87 83.4954ZM198.758 71.8073H208.325V64.8716H198.758V51H190.575V85.8807H198.758V71.8073ZM164.121 113.55H198.758V88.2477H164.121V113.55ZM190.575 95.1927V106.688H172.23V95.1927H190.575ZM242.037 84.5596L246.655 78.156C243.155 76.3761 239.663 73.9908 237.217 70.8257C234.642 67.7248 233.057 63.8899 233.057 58.9358V52.3853H224.351V59.0642C224.351 63.5596 222.83 67.5229 220.393 70.9541C217.955 74.4587 214.327 77.4954 210.295 80.1376L215.371 86.2844C218.542 84.367 221.373 81.8624 223.747 79.4128C226.056 76.9725 227.833 74.3945 228.823 72.0183C229.877 74.1284 231.664 76.4404 233.973 78.6239C236.282 80.9358 239.123 82.9817 242.018 84.5688L242.037 84.5596ZM253.381 86.211H261.564V51H253.381V61.9633H241.835V69.2294H253.381V86.2018V86.211ZM260.574 99.945C260.574 95.7156 258.861 92.1468 256.02 89.578C253.115 87 249.092 85.4862 244.346 85.4862C239.599 85.4862 235.641 87.0092 232.8 89.578C229.895 92.156 228.246 95.7248 228.246 99.945C228.246 104.165 229.895 107.936 232.8 110.514C235.641 112.954 239.599 114.413 244.346 114.413C249.092 114.413 253.124 112.963 256.02 110.514C258.861 107.936 260.574 104.367 260.574 99.945ZM252.529 99.945C252.529 104.505 249.102 107.541 244.346 107.541C239.59 107.541 236.3 104.505 236.3 99.945C236.3 95.3853 239.599 92.4128 244.346 92.4128C246.719 92.4128 248.698 93.2018 250.22 94.5229C251.695 95.9358 252.538 97.8899 252.529 99.9358V99.945ZM301.617 59.3853H315.408V52.5229H277.535V59.3945H291.39C290.401 61.9725 287.89 64.3486 284.793 66.2018C281.696 68.1193 278.067 69.633 274.896 70.2294L278.259 76.9633C281.861 76.1193 285.333 74.7615 288.55 72.9358C291.72 71.156 294.616 68.9083 296.531 66.4679C298.446 68.844 301.287 70.9633 304.512 72.7431C307.683 74.5229 311.312 75.9174 314.803 76.7706L318.166 70.1651C314.473 69.1743 310.643 67.8532 307.674 66C304.705 64.2202 302.396 62.0367 301.608 59.3945L301.617 59.3853ZM269.545 86.8716H323.517V79.9358H269.554V86.8716H269.545ZM313.291 103.183C313.291 99.156 311.44 95.9817 308.471 93.6697C305.374 91.4862 301.278 90.2385 296.531 90.2385C291.784 90.2385 287.826 91.4954 284.72 93.6697C281.622 95.8532 279.707 99.156 279.707 103.183C279.707 107.413 281.751 110.651 284.921 112.826C288.092 114.936 292.307 116 296.531 116C300.755 116 304.842 114.881 308.013 112.761C311.183 110.651 313.291 107.413 313.291 103.183ZM305.374 103.183C305.374 105.037 304.384 106.55 302.799 107.606C301.214 108.661 298.969 109.321 296.531 109.321C291.253 109.321 287.624 106.881 287.624 103.174C287.624 99.4679 291.253 96.8991 296.531 96.8991C298.969 96.8991 301.214 97.5596 302.799 98.6147C304.384 99.7339 305.374 101.321 305.374 103.174V103.183ZM328.007 74.844L328.795 82.2385C333.395 82.1101 337.995 81.9083 342.586 81.6422V90.5596H350.631V81.1101C357.495 80.578 364.221 79.9174 370.956 79.1284V84.7431H358.686V90.9541H370.956V97.8257H379.075V51H370.956V72.5321C368.115 72.8624 365.284 73.1284 362.379 73.3945C363.304 67.6514 363.698 61.8349 363.634 56.156V54.0459H332.891V61.1101H355.323C355.451 64.945 355.122 69.3028 354.462 73.9908C345.757 74.5872 336.914 74.8532 328.007 74.8532V74.844ZM343.512 112.431H380V105.431H351.566V94.1376H343.521V112.431H343.512Z" fill="#003CDC"/>
</svg>
