<svg width="624" height="180" viewBox="0 0 624 180" fill="none" xmlns="http://www.w3.org/2000/svg">
<rect width="624" height="180" fill="white"/>
<path d="M250.157 87.8694C249.889 87.7001 249.62 87.5308 249.352 87.3615C246.62 84.6339 242.815 83.4481 237.728 83.7465C233.492 84.0064 230.132 85.6822 227.568 87.2447C227.568 87.2056 227.564 87.1698 227.564 87.1301C227.564 85.8029 227.716 84.3651 227.863 82.9692C228.013 81.5493 228.164 80.1042 228.164 78.7368C228.164 77.3693 228.006 76.0209 227.525 74.8899C227.404 74.5965 227.138 74.425 226.8 74.425C225.428 74.4563 222.757 75.3939 222.11 75.9606C222.11 75.9623 221.757 76.7317 221.757 76.7317C221.732 78.2439 221.403 82.478 221.068 82.9888C221.08 82.9731 220.883 83.5023 220.883 83.5023C220.31 89.547 220.297 94.8591 220.831 99.419C220.89 99.875 221.768 100.563 222.445 100.81C223.185 101.085 225.514 100.461 226.855 99.9532C226.842 99.9582 227.364 99.8766 227.364 99.8766C227.789 99.8291 228.039 99.4726 228.014 98.9887C228.013 98.9809 228.044 97.6766 228.044 97.6766C229.017 93.7386 232.939 89.0429 237.576 88.336C240.196 87.9214 242.266 88.5892 243.904 90.3774C244.123 90.6959 244.602 93.528 242.874 96.7842C241.588 99.1943 239.014 101.223 235.631 102.496C232.426 103.71 228.9 104.205 224.547 104.052C224.37 103.934 220.47 101.298 220.47 101.298C217.024 98.8758 212.736 95.8588 208.843 94.3829C208.167 94.1231 206.937 93.1055 206.203 92.4981L205.802 92.1678C203.56 90.3707 199.293 87.5269 195.864 85.2419C195.864 85.2419 194.316 84.207 194.015 84.0064C194.02 83.8762 194.026 83.6191 194.026 83.6191C194.122 83.5107 196.274 82.2193 196.274 82.2193C199.29 80.4551 200.682 79.5912 200.979 79.1419C200.918 79.214 201.382 78.9061 201.382 78.9061C201.404 78.8943 208.853 74.6798 208.853 74.6798C216.025 70.7346 224.153 66.2635 228.422 61.8422C228.429 61.8371 228.629 61.1688 228.629 61.1688L228.724 60.5647C229.003 59.6226 229.023 58.8956 228.788 58.0568C228.724 57.8154 228.503 57.5382 228.208 57.484C224.877 57.1571 220.576 59.1548 216.664 62.8218C215.78 63.6533 215.038 64.0567 214.254 64.4859L213.656 64.8167C209.34 67.2677 199.619 73.3017 194.534 76.5574C194.868 71.0855 195.881 63.3046 197.126 56.8157L196.986 56.0411C196.97 56.0143 196.461 55.061 196.461 55.061L196.063 54.3552L195.948 54.3245C194.935 53.8115 194.104 54.0227 193.497 54.1775C193.499 54.1775 192.476 54.5513 192.476 54.5513L191.126 55.0425C190.858 55.0956 190.664 55.2582 190.559 55.5203C188.131 61.3934 186.105 71.0525 185.627 78.7815C180.77 75.689 176.28 73.4716 174.083 72.397L174.018 72.3635L173.754 72.3065C172.967 72.2054 172 71.6214 171.066 71.0576C170.974 71.0006 169.225 69.8628 169.225 69.8628L166.4 68.0556C166.426 68.0724 165.659 67.8869 165.659 67.8869C164.444 68.0936 162.119 69.6577 161.43 70.7228C161.336 70.8642 161.302 71.0184 161.302 71.1771C161.302 71.3984 161.369 71.6281 161.43 71.8432L161.555 72.4205L161.687 72.7647C163.039 74.1517 166.45 76.4652 169.798 78.2634L173.678 80.3188L179.613 83.5621C179.615 83.5895 180.632 84.3646 180.632 84.3646C180.635 84.3657 181.33 84.7691 181.33 84.7691C181.33 84.7691 181.404 84.8155 181.451 84.8474L170.657 92.06L164.973 95.8213C164.438 96.189 162.192 97.1954 161.702 97.3905C160.468 97.8917 159.538 98.6618 159.15 99.5L159 99.8252L159.151 100.043L159.582 100.373C159.566 100.37 160.168 100.753 160.168 100.753L160.793 101.183C160.806 101.189 161.384 101.271 161.384 101.271C162.382 101.312 163.862 100.742 166.627 99.5335C169.163 98.407 176.062 94.2483 179.01 92.4729L180.27 91.7157C180.79 91.7593 181.365 91.319 181.871 90.9328C182.464 90.4618 183.753 89.6727 184.537 89.3274C184.557 89.319 185.009 89.067 185.425 88.8356C185.421 88.9692 185.417 89.1737 185.417 89.1737C185.551 98.194 186.071 104.749 187.054 109.802L187.072 109.893L187.167 110.094C187.654 110.811 188.207 112.948 188.695 114.834L189.818 118.597C189.84 118.638 190.137 118.948 190.137 118.948C190.779 119.382 192.729 120.134 194.036 119.979L194.362 119.941L194.569 119.483C194.678 118.919 194.719 118.365 194.719 117.758C194.719 117.069 194.668 116.31 194.605 115.384L194.518 114.024C194.107 107.73 193.692 98.6333 193.692 92.5875C193.692 92.421 193.693 92.269 193.694 92.108L199.445 95.7291C207.407 100.895 219.437 108.702 226.706 110.765C227.085 110.879 227.48 110.79 227.761 110.524C227.773 110.513 228.882 109.807 228.882 109.807L229.087 109.721C229.508 109.524 229.789 108.818 229.837 108.056C235.962 107.746 244.513 105.389 249.083 99.638C250.855 97.4095 251.652 94.6819 251.652 92.3422C251.652 90.4293 251.119 88.7758 250.155 87.8677" fill="#F8B500"/>
<path d="M428.105 108.121V92.0217H433.747V103.248H465.582V108.121H428.105Z" fill="#7C7366"/>
<path d="M459.279 62.8708V87.0434H450.207V91.7223H459.279V96.0621H464.893V62.8708H459.279Z" fill="#7C7366"/>
<path d="M437.106 94.6998V84.307H422.932V79.4341H446.218V68.5775H425.754V63.7332H451.876V79.4028H456.364V84.3064H442.739V94.6992H437.107L437.106 94.6998Z" fill="#7C7366"/>
<path fill-rule="evenodd" clip-rule="evenodd" d="M373.151 82.6971H419.18V87.5594H373.151V82.6971Z" fill="#7C7366"/>
<path d="M396.602 89.6353C386.279 89.6353 377.901 93.0535 377.901 100.004C377.901 106.955 386.279 110.382 396.602 110.382C406.925 110.382 415.307 106.908 415.307 100.004C415.307 93.1004 406.933 89.6353 396.602 89.6353ZM396.583 105.54C389.5 105.54 383.773 103.834 383.773 100.015C383.773 96.1963 389.5 94.4986 396.583 94.4986C403.666 94.4986 409.384 96.2264 409.384 100.015C409.384 103.804 403.646 105.54 396.583 105.54Z" fill="#7C7366"/>
<path d="M415.892 75.7132C414.806 75.6288 403.11 74.8526 400.21 68.4777H414.729V63.6428H378.022V68.4777H392.539C389.633 74.8526 377.936 75.6288 376.854 75.7132V80.367C382.668 80.0289 391.457 78.3385 396.372 73.8059C401.29 78.339 410.078 80.0294 415.892 80.367V75.7132Z" fill="#7C7366"/>
<path d="M272.772 63.2404H279.936V83.3297L304.053 63.2404H314.203L288.713 83.5118L316.316 108.121H306.179L279.936 84.0723V108.121H272.772V63.2404Z" fill="#7C7366"/>
<path d="M342.445 103.026H328.347V87.2408H342.069C349.958 87.2408 353.525 90.0952 353.525 95.257C353.525 99.5989 351.201 103.026 342.444 103.026M328.347 68.3496H342.069C350.32 68.3496 352.287 71.1375 352.287 75.3029C352.287 80.0908 348.295 82.1439 342.894 82.1439H328.347V68.3496ZM350.404 84.6876V84.4998C355.434 83.4979 359.219 79.7678 359.219 74.3507C359.219 66.7318 353.733 63.2404 343.249 63.2404H321.2V108.121H343.949C356.13 108.121 361.035 102.321 361.035 95.6247C361.035 90.2902 357.621 85.5465 350.404 84.687" fill="#7C7366"/>
</svg>
