<svg width="592" height="180" viewBox="0 0 592 180" fill="none" xmlns="http://www.w3.org/2000/svg">
<rect width="592" height="180" fill="white"/>
<path d="M296.328 57H286.414V78.0377H245.913V57H236.015C233.654 57 231.747 58.907 231.747 61.2681V106.976C231.747 109.337 233.654 111.244 236.015 111.244H245.913V88.6171H286.414V111.244H296.328C298.689 111.244 300.596 109.337 300.596 106.976V61.2681C300.596 58.907 298.689 57 296.328 57Z" fill="#FFC20E"/>
<path d="M216.049 57H206.136V96.9565L174.958 65.3545C169.993 60.5113 166.588 57 158.672 57H150V106.961C150 109.322 151.907 111.229 154.268 111.229H164.181V71.0605L195.102 102.451C200.157 107.415 204.667 111.229 212.008 111.229H220.332V61.2681C220.332 58.907 218.425 57 216.064 57H216.049Z" fill="#FFC20E"/>
<path d="M341.247 77.0846C337.039 77.0846 334.209 79.8089 334.209 83.8651C334.209 87.9213 337.039 90.464 341.247 90.464C345.454 90.464 348.3 87.8153 348.3 83.8651C348.3 79.9148 345.469 77.0846 341.247 77.0846ZM341.247 87.9667C338.25 87.9667 337.796 85.1516 337.796 83.4716C337.796 81.5948 338.871 79.597 341.247 79.597C343.623 79.597 344.728 81.5494 344.728 83.4716C344.728 85.1516 344.274 87.9667 341.247 87.9667Z" fill="#35B558"/>
<path d="M330.604 72.8158H328.47V86.1346L322.144 74.3444C321.508 73.1639 320.933 72.8158 319.541 72.8158H316.877V88.9649C316.877 89.6308 317.452 90.1757 318.163 90.1757H320.297V76.8569L326.624 88.6471C327.26 89.8276 327.835 90.1757 329.227 90.1757H331.891V74.0266C331.891 73.3607 331.316 72.8158 330.604 72.8158Z" fill="#35B558"/>
<path d="M392.84 72.8158V79.8687H385.363V72.8158H383.063C382.352 72.8158 381.776 73.3607 381.776 74.0266V88.9649C381.776 89.6308 382.352 90.1757 383.063 90.1757H385.363V82.5174H392.84V90.1757H395.141C395.852 90.1757 396.427 89.6308 396.427 88.9649V74.0266C396.427 73.3607 395.852 72.8158 395.141 72.8158H392.84Z" fill="#35B558"/>
<path d="M358.436 77.3866H350.642V88.9498C350.642 89.6157 351.217 90.1606 351.928 90.1606H354.077V79.8385H357.24C359.586 79.8385 359.586 82.0936 359.586 83.592V90.1606H361.72C362.432 90.1606 363.007 89.6157 363.007 88.9498V82.3812C363.007 79.2028 361.342 77.3715 358.451 77.3715L358.436 77.3866Z" fill="#35B558"/>
<path d="M424.563 77.3875H422.414V87.7096H419.251C416.905 87.7096 416.905 85.4544 416.905 83.9561V77.3875H414.771C414.06 77.3875 413.484 77.9323 413.484 78.5983V85.1517C413.484 88.3301 415.149 90.1614 418.04 90.1614H425.834V78.5983C425.834 77.9323 425.259 77.3875 424.548 77.3875H424.563Z" fill="#35B558"/>
<path d="M436.355 77.0846C434.402 77.0846 432.995 78.0684 432.177 78.8857L432.041 79.037V77.3873H430.043C429.332 77.3873 428.757 77.9322 428.757 78.5981V94.1872C428.757 94.8683 429.332 95.4131 430.043 95.4131H432.208V88.9051L432.344 89.0261C433.479 89.9797 434.841 90.4791 436.279 90.4791C441.44 90.4791 442 85.7721 442 83.744C442 81.7159 441.455 77.0846 436.37 77.0846H436.355ZM435.371 87.9667C433.04 87.9667 432.208 85.6964 432.208 83.744C432.208 81.7916 433.207 79.597 435.416 79.597C437.626 79.597 438.398 81.7462 438.398 83.744C438.398 85.7418 437.596 87.9667 435.371 87.9667Z" fill="#35B558"/>
<path d="M377.281 77.3873H375.298V78.9613L375.162 78.81C373.997 77.5689 372.846 77.0846 371.045 77.0846C367.14 77.0846 365.354 80.5202 365.354 83.7137C365.354 85.651 365.884 90.1764 370.833 90.1764C372.695 90.1764 374.224 89.5559 375.011 88.451L375.162 88.2694V88.4813C375.162 90.9332 374.844 92.9613 371.03 92.9613H367.14V94.2023C367.14 94.8683 367.716 95.4131 368.427 95.4131H371.484C376.267 95.4131 378.598 93.3094 378.598 88.9656V78.5981C378.598 77.9322 378.022 77.3873 377.311 77.3873H377.281ZM371.984 87.6791C370.001 87.6791 368.926 85.6359 368.926 83.7137C368.926 82.7451 369.153 79.5819 372.135 79.5819C374.012 79.5819 375.132 81.0954 375.132 83.6381C375.132 86.1808 373.951 87.664 371.968 87.664L371.984 87.6791Z" fill="#35B558"/>
<path d="M400.196 95.4133C399.484 95.4133 398.909 94.8684 398.909 94.2025V92.9614H400.967C402.481 92.9614 403.313 92.2198 403.313 90.8728C403.313 90.8576 398.152 77.3875 398.152 77.3875H401.86L405.266 86.9831L407.99 79.355C408.52 77.8718 408.928 77.3875 410.366 77.3875H412.076C412.016 77.5237 406.87 90.4641 406.87 90.4641C405.826 93.1128 404.918 95.4133 401.421 95.4133H400.196Z" fill="#35B558"/>
</svg>
