<svg width="750" height="180" viewBox="0 0 750 180" fill="none" xmlns="http://www.w3.org/2000/svg">
<path d="M189.739 51L176.712 57.5266L163.711 51L176.712 75.7434L189.739 51Z" fill="#FDBB30"/>
<path d="M194.297 70.1342L194.087 69.977L203.366 66.0715V52.9921L187.22 59.8856C187.22 59.8856 178.492 76.4249 178.282 76.8181C185.123 77.6306 190.261 83.3709 190.261 90.2907C190.261 97.7871 184.18 103.868 176.683 103.868C169.187 103.868 163.106 97.7609 163.106 90.2907C163.106 83.3709 168.243 77.6306 175.084 76.8181C174.875 76.4511 166.146 59.8856 166.146 59.8856L150.079 52.9921V66.0453L159.357 69.9508L159.148 70.108C153.329 75.193 150 82.5322 150 90.2645C150 104.995 161.979 117 176.709 117C191.44 117 203.419 104.995 203.419 90.2645C203.419 82.5584 200.09 75.193 194.271 70.108" fill="#FDBB30"/>
<path d="M537.666 85.5205C538.033 85.5205 538.295 85.7826 538.374 86.1758C538.557 87.1456 538.4 88.2989 538.374 88.5086C538.321 88.9542 538.033 89.2687 537.666 89.2687H510.144H510.275C501.023 89.2687 493.736 92.414 493.736 99.2814C493.736 106.149 501.127 109.294 510.275 109.294C519.423 109.294 526.814 106.149 526.814 99.2814C526.814 96.136 525.268 93.777 522.725 92.1519H533.21C534.652 94.0129 535.438 96.2409 535.438 98.8358C535.438 108.639 524.167 113.095 510.249 113.095C496.331 113.095 485.06 108.639 485.06 98.8358C485.06 94.7206 487.052 91.5229 490.407 89.2425H482.806L480.342 85.4943H537.666V85.5205Z" fill="#0079C1"/>
<path d="M538.292 78.0499L536.064 81.4836C522.356 81.4836 512.684 77.4471 509.407 72.2835C506.105 77.4471 496.433 81.4836 482.75 81.4836L480.522 78.0499C492.632 78.0499 504.034 72.5456 504.034 65.0754H484.297L481.885 61.3271H534.885C535.488 61.3271 535.619 62.0611 535.619 63.2144C535.619 64.3677 535.488 65.1016 534.885 65.1016H514.807C514.807 72.5718 526.235 78.0761 538.318 78.0761" fill="#0079C1"/>
<path d="M571.058 65.1539H548.752L546.341 61.3795H579.262C580.337 61.3795 581.28 62.3231 581.28 63.3978V80.4613H590.69V59.3875H597.4C598.475 59.3875 599.419 60.3311 599.419 61.4057V110.447H553.758C551.531 110.447 549.722 108.638 549.722 106.41V94.9823H556.432C557.507 94.9823 558.45 95.9259 558.45 97.0006V104.654C558.45 105.729 559.394 106.673 560.469 106.673H590.69V94.7202H576.982L574.57 90.972H590.69V84.2619H566.838V93.6718H558.11V84.2619H546.76L544.349 80.5137H572.552V66.5955C572.552 65.3112 571.084 65.2064 571.084 65.2064" fill="#0079C1"/>
<path d="M339.874 59.9646H332.063V80.0948H300.19V59.9646H292.379C290.545 59.9646 289.024 61.747 289.024 63.9225V106.49C289.024 108.665 290.518 110.474 292.379 110.474H300.19V88.8494H332.063V110.474H339.874C341.735 110.474 343.229 108.691 343.229 106.49V63.9487C343.229 61.747 341.735 59.9908 339.874 59.9908" fill="#0079C1"/>
<path d="M276.048 59.9646H268.237V98.6524L244.778 67.7493C240.872 63.241 238.199 59.9646 231.961 59.9646H224.019V106.49C224.019 108.665 225.513 110.474 227.374 110.474H235.158V71.6286L258.749 102.322C262.733 106.935 266.271 110.5 272.064 110.5H279.351V63.9487C279.351 61.747 277.857 59.9908 275.996 59.9908" fill="#0079C1"/>
<path d="M408.836 95.69H385.036V110.499H376.282V95.69H352.796L350.385 91.9156H408.836C409.439 91.9156 409.57 92.6495 409.57 93.8028C409.57 94.9561 409.439 95.69 408.836 95.69ZM355.103 82.296V61.0387H405.481C406.084 61.0387 406.215 61.7726 406.215 62.9259C406.215 64.0792 406.084 64.8131 405.481 64.8131H363.831V71.3397H405.14C405.743 71.3397 405.874 72.0736 405.874 73.2269C405.874 74.3802 405.743 75.1141 405.14 75.1141H363.831V80.5661C363.831 81.6407 364.775 82.5844 365.849 82.5844H406.136C406.739 82.5844 406.87 83.3183 406.87 84.4716C406.87 85.6249 406.739 86.3588 406.136 86.3588H359.113C356.885 86.3588 355.077 84.5502 355.077 82.3222" fill="#0079C1"/>
<path d="M453.028 106.437C446.03 104.209 438.035 98.4161 435.126 91.6274C432.243 98.4161 424.222 104.209 417.224 106.437L414.262 103.685C423.016 100.461 430.749 91.575 430.749 79.2557V65.1278H418.036L415.625 61.3534H453.238C453.841 61.3534 453.972 62.0873 453.972 63.2406C453.972 64.3939 453.841 65.1278 453.238 65.1278H439.503V79.2557C439.503 91.575 447.236 100.434 455.99 103.685L453.028 106.437ZM461.363 110.473V59.3613H468.1C469.174 59.3613 470.118 60.3049 470.118 61.3796V74.826H476.776C477.379 74.826 477.51 75.5599 477.51 76.7132C477.51 77.8665 477.379 78.6004 476.776 78.6004H470.118V110.473H461.363Z" fill="#0079C1"/>
</svg>
