<svg width="690" height="180" viewBox="0 0 690 180" fill="none" xmlns="http://www.w3.org/2000/svg">
<rect width="690" height="180" fill="white"/>
<path d="M584.104 9C577.003 38.3639 551.546 54.3637 536.57 62.9217L535.918 62.0535C542.058 57.0613 563.112 41.5267 569.841 15.7596L584.073 9L584.104 9Z" fill="#F58220"/>
<path d="M214.31 65.4023C213.907 68.069 208.48 105.991 207.984 109.526H220.139C220.542 106.828 225.969 68.9372 226.465 65.4023H214.31Z" fill="#00427A"/>
<path d="M313.813 65.4023C313.441 68.069 307.984 105.991 307.488 109.526H335.984C336.263 107.572 336.976 102.487 337.348 100.006H320.077L321.255 91.8516H336.914C337.193 89.9601 337.844 85.371 338.185 82.9525H322.526L323.674 74.9216H340.48C340.759 72.9681 341.503 67.8829 341.844 65.4023H313.813Z" fill="#00427A"/>
<path d="M178.372 90.6733C178.372 90.6733 188.542 67.4178 189.317 65.4023H204.635C204.635 68.5031 202.62 106.394 202.62 109.526H191.612L193.441 78.6115C193.441 78.6115 181.038 107.541 180.201 109.526H171.519L167.612 78.6115C167.302 80.0068 163.178 100.658 160.946 109.526H150C151.147 105.588 159.519 67.6659 160.201 65.4023H174.93L178.403 90.6733H178.372Z" fill="#00427A"/>
<path d="M292.416 100.596C292.416 100.596 293.191 107.789 293.47 109.526H305.129C304.478 105.898 298.121 67.976 297.656 65.4023H282.896C282.028 67.2318 265.191 105.185 263.207 109.526H275.051C275.672 108.037 278.679 100.596 278.679 100.596H292.416ZM282.028 91.5105L289.005 75.1386L291.268 91.5105H282.028Z" fill="#00427A"/>
<path d="M243.423 73.6813H246.12C247.981 73.6813 250.027 73.8673 251.33 75.3557C252.229 76.4099 252.57 77.8983 252.291 79.7897C252.291 79.7897 251.919 83.1385 249.717 84.2238C249.717 84.2238 248.198 85.216 245.655 85.278H240.167L250.523 109.526H262.337L253.407 90.9214C258.802 89.9291 263.019 88.3167 264.105 79.9448C264.26 78.8905 264.322 77.8983 264.322 76.9371C264.322 73.8363 263.516 71.3247 261.903 69.4643C258.988 66.0845 253.965 65.4023 250.244 65.4023H233.562C233.19 68.069 227.733 105.991 227.237 109.526H238.306C238.679 107.076 243.423 73.6813 243.423 73.6813Z" fill="#00427A"/>
<path d="M482.09 82.9515C482.306 82.9206 482.522 82.8588 482.739 82.797C482.522 82.8279 482.275 82.8897 482.059 82.9515H482.09Z" fill="#00427A"/>
<path d="M486.987 81.8051C486.057 82.0221 485.127 82.2702 484.166 82.4562C485.127 82.2392 486.057 81.9911 486.987 81.8051Z" fill="#00427A"/>
<path d="M489.875 81.0923C489.316 81.2163 488.789 81.3713 488.2 81.5264C488.758 81.3713 489.316 81.2163 489.875 81.0923Z" fill="#00427A"/>
<path d="M466.152 86.1156C466.152 86.1156 465.936 86.1774 465.843 86.1774C465.966 86.1774 466.059 86.1774 466.152 86.1156Z" fill="#00427A"/>
<path d="M462.646 86.7043C462.399 86.7043 462.183 86.7662 461.966 86.7971C462.214 86.7662 462.399 86.7353 462.646 86.7043Z" fill="#00427A"/>
<path d="M505.998 76.3789C504.757 76.813 503.455 77.1851 502.153 77.5882C503.486 77.1851 504.757 76.782 505.998 76.3789Z" fill="#00427A"/>
<path d="M501.532 77.8052C500.974 77.9602 500.416 78.1152 499.858 78.3013C500.416 78.1463 500.974 77.9602 501.532 77.8052Z" fill="#00427A"/>
<path d="M499.175 78.519C497.377 79.0462 495.485 79.6043 493.563 80.1314C495.516 79.6043 497.377 79.0462 499.175 78.519Z" fill="#00427A"/>
<path d="M501.502 65.4023C501.222 67.2318 500.354 73.0611 499.951 75.9138C508.54 73.5263 518.897 70.0844 528.509 65.4023H501.502Z" fill="#00427A"/>
<path d="M421.502 84.9992C420.448 84.193 419.177 83.4178 417.75 82.7667C417.688 82.7667 414.557 81.1543 414.557 81.1543L414.495 81.1233C413.471 80.5342 411.053 79.1388 411.053 76.7513C411.053 75.604 411.518 74.6118 412.324 73.8986C413.316 73.0614 414.867 72.7823 416.541 73.0614C418.619 73.4025 421.037 74.7358 423.642 76.9993C424.882 74.6118 427.27 69.9917 428.138 68.3483C425.13 65.8677 422.184 64.5344 417.812 63.7592C412.417 62.953 407.208 64.1003 403.549 66.8599C400.479 69.2165 398.557 72.6583 398.061 76.8443C397.968 77.5575 397.937 78.2396 397.937 78.8908C397.937 80.8442 398.278 82.5806 398.96 84.069C399.208 84.069 399.487 84.1 399.735 84.162C405.254 84.5651 412.82 84.9062 421.502 84.9682" fill="#00427A"/>
<path d="M478.99 74.9216H495.796C496.075 72.9681 496.819 67.8829 497.16 65.4023H469.129C468.974 66.5496 467.889 74.0534 466.68 82.5804C470.556 82.0843 474.401 81.5261 478.152 80.844L479.021 74.8906L478.99 74.9216Z" fill="#00427A"/>
<path d="M505.997 76.3792C504.757 76.8133 503.454 77.1854 502.152 77.5885C501.935 77.6505 501.749 77.7125 501.501 77.8055C500.943 77.9605 500.416 78.1156 499.826 78.3016C499.578 78.3636 499.361 78.4257 499.144 78.4877C497.315 79.0148 495.454 79.5729 493.532 80.1001C493.222 80.1931 492.912 80.2551 492.602 80.3481C492.044 80.4721 491.485 80.6272 490.927 80.7822C490.586 80.8752 490.214 80.9683 489.842 81.0613C489.284 81.2163 488.757 81.3403 488.199 81.4954C487.796 81.5884 487.361 81.6814 486.989 81.8055C486.059 82.0225 485.129 82.2396 484.168 82.4876C483.703 82.6116 483.237 82.7047 482.741 82.8287C482.524 82.8907 482.307 82.9217 482.09 82.9837C477.098 84.1 471.796 85.1852 466.183 86.1465C466.09 86.1465 465.966 86.1775 465.842 86.1775C464.788 86.3635 463.734 86.5496 462.649 86.7046C462.4 86.7046 462.214 86.7666 461.966 86.7976C460.85 86.9837 459.765 87.1697 458.618 87.3248C458.556 87.3248 458.462 87.3248 458.4 87.3248C452.354 88.224 445.997 88.9681 439.331 89.5573H439.238C438.215 89.6503 437.191 89.7433 436.168 89.8363C436.075 89.8363 435.982 89.8363 435.858 89.8363C434.804 89.8984 433.75 89.9914 432.695 90.0534C432.633 90.0534 432.54 90.0534 432.478 90.0534C431.362 90.1154 430.277 90.2084 429.191 90.2704C429.129 90.2704 429.067 90.2704 429.036 90.2704C427.92 90.3325 426.804 90.3945 425.657 90.4565H425.564C419.951 90.7356 414.153 90.8906 408.168 90.8906H407.765C406.401 90.8906 405.037 90.8906 403.641 90.8906C403.424 90.8906 403.145 90.8906 402.928 90.8906C398.06 90.8286 393.13 90.6425 388.014 90.3945H387.951C380.293 89.9914 372.355 89.3402 364.2 88.41L373.626 79.5729C373.626 79.5729 379.083 81.2163 386.68 82.5806C385.223 74.0536 383.983 66.5499 383.765 65.4646H369.006C368.169 67.294 351.301 105.247 349.347 109.588H361.192C361.812 108.1 365.781 98.6114 365.781 98.6114H378.122C378.122 98.6114 379.3 107.821 379.579 109.588H391.238C390.99 108.162 389.874 101.495 388.572 93.7743C396.882 94.2394 405.223 94.3324 412.975 94.2084C413.378 94.8595 413.564 95.5727 413.564 96.3169C413.564 96.5959 413.564 96.844 413.502 97.1231C413.316 98.1153 412.819 98.9215 412.013 99.4796C410.401 100.627 408.075 100.379 406.494 100.1C402.742 99.4486 399.734 96.5959 397.316 94.2084C395.796 96.689 392.634 101.867 391.61 103.542C396.044 107.604 400.851 110.053 405.936 110.766C411.083 111.541 416.168 110.363 419.951 107.604C423.269 105.154 425.315 101.588 425.967 97.3091C426.184 96.0688 426.246 94.9215 426.184 93.8053C434.525 93.4642 441.439 92.9371 445.873 92.565C447.3 93.6192 448.075 94.8595 448.075 96.3169C448.075 96.5959 448.075 96.844 448.013 97.1231C447.827 98.1153 447.3 98.9215 446.494 99.4796C444.881 100.627 442.587 100.379 441.005 100.1C437.222 99.4486 434.215 96.5959 431.827 94.2084C430.308 96.689 427.145 101.867 426.122 103.542C430.587 107.604 435.362 110.053 440.478 110.766C445.625 111.541 450.711 110.363 454.463 107.604C457.78 105.154 459.858 101.588 460.509 97.3091C460.912 94.9215 460.819 92.782 460.23 90.8596C462.121 90.6115 463.92 90.3325 465.656 90.0534C464.354 99.3246 463.114 107.976 462.866 109.588H491.392C491.671 107.635 492.385 102.549 492.757 100.069H475.486L476.664 91.9138H492.323C492.571 90.2394 493.129 86.3635 493.501 83.8519C495.64 83.1698 496.695 82.7667 496.695 82.7667C496.695 82.7667 501.997 81.1543 508.85 78.6427C507.857 85.5573 504.819 106.673 504.416 109.588H516.757C517.129 107.014 521.532 76.4412 521.532 76.4412H530.462C530.71 74.5497 531.578 68.4723 531.981 65.7437C527.33 68.3173 518.586 72.3482 506.121 76.4412" fill="#00427A"/>
<path d="M452.293 82.7667L449.068 81.1543H449.037L449.006 81.1233C447.952 80.5342 445.533 79.1388 445.533 76.7513C445.533 75.604 445.998 74.5808 446.804 73.8986C447.827 73.0614 449.347 72.7513 450.99 73.0614C453.099 73.4025 455.486 74.7668 458.122 76.9993C459.362 74.5808 461.75 69.9917 462.618 68.3483C459.579 65.8677 456.665 64.5344 452.293 63.7592C446.897 62.984 441.688 64.1003 438.06 66.891C434.99 69.2475 433.068 72.6893 432.572 76.8753C432.479 77.5885 432.448 78.2706 432.448 78.9218C432.448 81.2163 432.944 83.2318 433.905 84.8752C440.479 84.7202 447.393 84.4101 454.37 83.8209C453.719 83.4489 453.068 83.0768 452.293 82.7357" fill="#00427A"/>
</svg>
