<svg width="633" height="180" viewBox="0 0 633 180" fill="none" xmlns="http://www.w3.org/2000/svg">
<rect width="633" height="180" fill="white"/>
<path d="M162.653 73.7891C162.421 72.8295 162.476 71.8148 162.605 71.2892C162.929 69.7734 163.962 68.0803 166.963 68.0803C169.75 68.0803 171.389 69.81 171.389 72.4016V75.3477H183.266V72.0043C183.26 61.6503 173.925 60 167.195 60C158.735 60 151.828 62.8055 150.562 70.5802C150.214 72.7133 150.159 74.5898 150.66 76.998C152.72 86.7285 169.64 89.5463 172.104 95.7012C172.562 96.8442 172.428 98.3172 172.196 99.2157C171.804 100.817 170.728 102.431 167.544 102.431C164.567 102.431 162.788 100.701 162.788 98.0972L162.77 93.5192H150V97.1559C150 107.797 158.356 111 167.305 111C176.254 111 182.972 108.066 184.122 100.102C184.696 95.9946 184.262 93.3236 184.073 92.309C182.062 82.3217 164.011 79.3573 162.653 73.7891ZM317.472 73.9052C317.258 72.9639 317.319 71.9676 317.429 71.442C317.771 69.9201 318.792 68.2576 321.745 68.2576C324.496 68.2576 326.103 69.969 326.103 72.5422V75.4516H337.84V72.1327C337.84 61.8764 328.646 60.2628 321.983 60.2628C313.596 60.2628 306.75 63.0255 305.497 70.7452C305.167 72.8478 305.081 74.712 305.613 77.0896C307.655 86.7102 324.404 89.5035 326.837 95.5912C327.265 96.7464 327.142 98.2133 326.922 99.0813C326.556 100.664 325.492 102.26 322.332 102.26C319.367 102.26 317.588 100.554 317.588 97.9872V93.4214H304.953V97.052C304.953 107.571 313.193 110.749 322.075 110.749C330.957 110.749 337.601 107.846 338.726 99.9675C339.264 95.8968 338.861 93.2502 338.641 92.2478C336.672 82.3767 318.817 79.4123 317.466 73.8991L317.472 73.9052ZM425.57 99.8392L414.36 61.5158H396.694V108.622H408.381L407.703 69.0705L419.745 108.622H436.69V61.5158H424.929L425.577 99.8392H425.57ZM200.968 61.5158L192.148 109.117H205.009L211.654 65.0548L218.139 109.117H230.909L222.125 61.5158H200.962H200.968ZM272.873 61.5158L266.864 98.7267L260.861 61.5158H241.441L240.414 109.117H252.31L252.634 65.0548L260.819 109.117H272.891L281.083 65.0548L281.407 109.117H293.333L292.269 61.5158H272.873ZM383.496 61.5158H371.454V96.7281C371.472 97.3393 371.454 98.03 371.35 98.5373C371.099 99.7169 370.097 101.997 366.778 101.997C363.458 101.997 362.468 99.723 362.236 98.5373C362.114 98.03 362.101 97.3393 362.114 96.7281V61.5158H350.078V95.634C350.065 96.5141 350.133 98.3111 350.181 98.7818C351.013 107.675 358.018 110.56 366.772 110.56C375.525 110.56 382.543 107.675 383.392 98.7818C383.459 98.3111 383.545 96.5141 383.496 95.634V61.5158ZM466.159 82.4011V89.3446H471.037V96.233C471.05 96.8503 471.019 97.5104 470.915 98.0422C470.719 99.3257 469.503 101.514 466.037 101.514C462.571 101.514 461.397 99.3257 461.19 98.0422C461.104 97.5104 461.067 96.8442 461.067 96.233V74.4736C461.067 73.7035 461.122 72.86 461.281 72.2244C461.52 71.063 462.547 68.7771 466.013 68.7771C469.656 68.7771 470.56 71.1853 470.768 72.2244C470.903 72.9089 470.915 74.058 470.915 74.058V76.6985H482.902V75.1399C482.902 75.1399 482.957 73.5079 482.811 71.9921C481.912 63.0622 474.552 60.2384 466.116 60.2384C457.681 60.2384 450.456 63.0866 449.404 71.9921C449.306 72.805 449.166 74.2719 449.166 75.1399V95.1511C449.166 96.0252 449.196 96.6975 449.355 98.2928C450.138 106.978 457.663 110.053 466.08 110.053C474.497 110.053 482.022 106.972 482.823 98.2928C482.963 96.6975 482.982 96.0252 483 95.1511V82.395H466.159V82.4011Z" fill="#1428A0"/>
</svg>
