<svg width="614" height="180" viewBox="0 0 614 180" fill="none" xmlns="http://www.w3.org/2000/svg">
<rect width="614" height="180" fill="white"/>
<path d="M231.952 82.1746C231.982 82.7759 231.998 83.3718 232.001 83.9649V83.9977C232.001 102.967 219.121 118.927 201.628 123.61C198.758 124.372 195.814 124.823 192.845 124.957C191.952 124.998 191.063 125.009 190.178 124.993C169.431 124.588 152.46 108.767 150.243 88.5078C150.148 87.6304 150.085 86.7502 150.049 85.8673C150.019 85.2742 150.003 84.6783 150 84.0824V83.995C149.997 61.36 168.352 43 190.998 43C210.312 43 226.501 56.3497 230.853 74.3189C231.471 76.8964 231.84 79.5259 231.952 82.1746ZM212.641 63.4237C210.241 62.7595 208.467 62.1909 207.945 61.0894C207.699 60.5673 207.849 60.0425 208.191 59.7965C208.56 59.5259 209.06 59.6161 209.639 59.9004C210.498 60.3159 211.55 60.9336 212.356 61.032C214.707 61.3163 214.278 57.7192 210.052 55.6336C207.567 54.3981 205.135 53.8925 201.841 54.0155C200.622 54.0647 199.471 54.0209 198.452 53.8597C196.913 53.6218 195.024 52.9686 193.753 52.7034C192.78 52.4984 192.225 52.5258 191.995 52.8483C191.779 53.1544 191.851 53.6082 192.441 54.3571C193.63 55.855 195.502 57.5224 194.546 61.4229C192.173 71.0935 195.423 75.5188 198.733 76.2459C200.586 76.6586 202.295 76.224 203.339 75.1389C204.331 74.1029 204.758 72.3481 203.804 70.8639C202.341 68.5897 201.827 66.6108 203.131 65.788C204.323 65.0364 206.02 65.7279 207.308 68.6116C209.369 73.231 212.053 74.4555 214.734 71.17C216.932 68.4777 216.844 64.5826 212.641 63.421V63.4237ZM205.176 88.6636C194.056 81.9996 188.54 79.3647 184.041 76.153C176.585 70.8366 175.404 66.8732 175.177 64.118C174.77 59.1842 178.504 54.7425 182.306 52.6488C182.598 52.4711 183.101 52.0611 182.882 51.498C182.661 50.9295 181.98 51.0388 181.726 51.0962C173.225 52.9002 164.965 60.3842 166.247 70.3774C166.758 74.3353 169.276 81.0183 182.314 88.6964C186.761 91.3122 190.599 93.2966 196.626 96.7461C204.788 101.412 208.543 107.423 203.489 113.98C203.107 114.439 202.776 114.915 202.915 115.328C203.071 115.806 203.702 115.888 204.29 115.625C208.169 113.838 211.372 111.156 212.9 108.672C215.587 104.293 216.926 95.7074 205.178 88.6636H205.176ZM192.168 115.267C191.181 114.983 189.686 114.521 188.439 113.975C186.868 113.288 185.446 112.534 184.818 111.914C184.408 111.501 184.345 111.036 184.673 110.558C186.553 107.857 187.081 106.788 187.606 105.517C188.721 102.825 187.619 102.565 185.886 103.063C184.003 103.601 182.513 104.151 181.36 104.585C179.742 105.189 178.741 105.558 178.151 105.271C177.536 104.974 177.424 103.908 177.202 102.142C177.047 100.884 176.782 99.4494 176.445 98.0527C175.748 95.2482 174.548 95.7867 173.556 96.932C172.321 98.4299 171.64 100.286 171.129 101.259C170.856 101.781 170.541 101.953 170.156 101.871C169.3 101.688 168.171 100.365 166.939 98.7907C165.137 96.4892 164.334 94.718 163.396 94.6114C161.404 94.379 162.289 99.0913 164.159 102.975C165.982 106.778 168.811 110.52 173.548 113.513C178.955 116.935 186.941 118.176 191.851 117.487C193.4 117.268 193.707 115.716 192.162 115.27L192.168 115.267Z" fill="#0046FF"/>
<path d="M247.059 87.4086C247.638 87.3512 248.333 87.1681 249.158 86.851C249.978 86.5312 250.844 86.1212 251.76 85.621C252.665 85.1208 253.551 84.5878 254.417 84.0247C257.437 82.0102 259.974 79.5502 262.021 76.6392C262.882 77.8364 263.935 78.9625 265.189 80.0258C266.427 81.0836 267.745 82.0458 269.125 82.9095C271.555 84.3992 273.444 85.293 274.805 85.5909C276.169 85.8889 277.033 85.703 277.405 85.0279L279.815 80.5014C278.175 79.9411 276.538 79.255 274.912 78.4268C273.294 77.6095 271.842 76.6392 270.549 75.5212C269.267 74.4005 268.215 73.1049 267.395 71.6316C266.57 70.1556 266.16 68.5101 266.16 66.6815V59.2413H256.483C256.073 59.2413 255.792 59.4135 255.644 59.7443C255.494 60.0805 255.59 60.4549 255.92 60.8595C256.448 61.4608 256.77 62.0457 256.902 62.6252C257.036 63.202 257.096 63.9618 257.096 64.8912V67.2364C257.096 69.0268 256.735 70.6695 256.008 72.1647C255.278 73.6543 254.283 75.0156 253.015 76.2456C251.744 77.4783 250.284 78.5881 248.622 79.5693C246.966 80.5615 245.2 81.4089 243.336 82.1196L245.908 86.985C246.097 87.3212 246.474 87.4606 247.056 87.4059M262.248 103.074C261.685 102.644 261.406 101.778 261.406 100.471V90.2896H251.9C251.484 90.2896 251.208 90.4563 251.063 90.7925C250.91 91.1287 251.003 91.4977 251.345 91.905C251.867 92.5501 252.192 93.1323 252.321 93.6708C252.449 94.2174 252.52 94.9664 252.52 95.9394V101.311C252.52 103.022 252.741 104.443 253.19 105.558C253.638 106.679 254.324 107.573 255.262 108.245C256.196 108.917 257.35 109.382 258.73 109.645C260.108 109.904 261.729 110.038 263.59 110.038H293.802V103.716H264.992C263.719 103.716 262.808 103.497 262.251 103.071M292.96 93.146V58.3393H283.396C282.986 58.3393 282.696 58.506 282.527 58.8176C282.36 59.1374 282.442 59.5037 282.778 59.9137C283.3 60.5096 283.661 61.1 283.872 61.6986C284.074 62.2972 284.181 63.0817 284.181 64.0493V93.146H292.96ZM307.898 105.561C308.344 106.687 309.035 107.578 309.964 108.251C310.902 108.92 312.058 109.382 313.436 109.65C314.816 109.912 316.44 110.046 318.304 110.046H348.073V103.719H319.815C318.509 103.719 317.566 103.486 316.992 103.049C316.412 102.601 316.125 101.701 316.125 100.359V92.5255H306.616C306.201 92.5255 305.922 92.7004 305.771 93.0366C305.624 93.3674 305.717 93.7391 306.05 94.1518C306.46 94.6384 306.761 95.103 306.947 95.554C307.135 95.9996 307.228 96.5025 307.228 97.0629V101.261C307.228 103.011 307.447 104.446 307.898 105.566M311.984 71.3528C313.023 70.0654 314.537 69.4176 316.516 69.4176C318.495 69.4176 319.952 70.0654 321.018 71.3528C322.084 72.643 322.617 74.2338 322.617 76.1362C322.617 77.9239 322.081 79.4627 321.018 80.7474C319.952 82.0403 318.457 82.6799 316.516 82.6799C314.576 82.6799 313.023 82.0403 311.984 80.7474C310.935 79.4655 310.418 77.9239 310.418 76.1362C310.418 74.2338 310.935 72.6403 311.984 71.3528ZM302.724 72.4407C302.259 73.6352 302.021 74.9609 302.021 76.4123C302.021 78.1671 302.347 79.8017 303.005 81.3078C303.656 82.8193 304.596 84.1395 305.818 85.2547C307.051 86.3699 308.565 87.2474 310.355 87.8842C312.146 88.5184 314.193 88.8382 316.514 88.8382C318.834 88.8382 320.89 88.5211 322.691 87.8842C324.503 87.2501 326.017 86.3699 327.247 85.2547C328.478 84.1368 329.412 82.8193 330.046 81.305C330.681 79.7989 330.995 78.1644 330.995 76.4096C330.995 74.9937 330.743 73.6789 330.243 72.4653C329.749 71.2681 329.054 70.1611 328.193 69.1935H334.075V63.0407H321.376V56.7758H311.809C311.394 56.7758 311.107 56.9344 310.938 57.2514C310.774 57.5712 310.875 57.9348 311.246 58.342C311.771 58.9762 312.099 59.583 312.23 60.1625C312.362 60.7392 312.424 61.51 312.424 62.4831V63.0434H298.834V69.1962H304.703C303.85 70.1693 303.183 71.2462 302.718 72.4407M347.395 58.3448H337.828C337.418 58.3448 337.129 58.5033 336.959 58.8204C336.79 59.1374 336.891 59.4982 337.273 59.9137C337.793 60.5451 338.143 61.1519 338.334 61.7287C338.512 62.3054 338.616 63.0817 338.616 64.0493V93.9222H347.392V77.5931H353.764V71.2708H347.392V58.3475L347.395 58.3448ZM391.088 73.5067C389.295 74.4798 386.275 74.9636 382.027 74.9636C377.779 74.9636 374.753 74.4771 372.96 73.5067C371.17 72.5364 370.273 71.1752 370.273 69.4231C370.273 67.671 371.17 66.3371 372.96 65.3121C374.753 64.2844 377.768 63.7705 382.027 63.7705C386.285 63.7705 389.292 64.2844 391.088 65.3121C392.876 66.3371 393.769 67.7065 393.769 69.4231C393.769 71.1396 392.876 72.5391 391.088 73.5067ZM397.547 61.0016C395.847 59.9766 393.712 59.1866 391.145 58.6236C388.573 58.066 385.531 57.7872 382.027 57.7872C378.523 57.7872 375.48 58.066 372.9 58.6236C370.334 59.1866 368.207 59.9766 366.523 61.0016C364.848 62.0293 363.593 63.2594 362.776 64.6916C361.956 66.1321 361.554 67.7065 361.554 69.4204C361.554 71.1342 361.958 72.6457 362.776 74.0671C363.596 75.483 364.85 76.702 366.523 77.727C368.207 78.7521 370.334 79.5584 372.9 80.1351C375.48 80.7146 378.512 80.9989 382.027 80.9989C385.542 80.9989 388.573 80.7146 391.145 80.1351C393.712 79.5584 395.847 78.7548 397.547 77.727C399.242 76.6993 400.51 75.4802 401.324 74.0671C402.142 72.6457 402.554 71.0986 402.554 69.4204C402.554 67.7421 402.142 66.1321 401.324 64.6916C400.513 63.2594 399.242 62.0293 397.547 61.0016ZM403.284 103.719H373.523C372.594 103.719 371.93 103.585 371.536 103.328C371.143 103.068 370.946 102.428 370.946 101.428V93.1432H361.436C361.026 93.1432 360.748 93.31 360.597 93.6489C360.447 93.9796 360.537 94.3568 360.873 94.7641C361.289 95.2506 361.584 95.7208 361.773 96.1636C361.961 96.6119 362.049 97.1175 362.049 97.6697V102.931C362.049 104.35 362.237 105.517 362.634 106.427C363.03 107.338 363.623 108.07 364.427 108.611C365.225 109.153 366.258 109.524 367.504 109.735C368.754 109.942 370.213 110.041 371.892 110.041H403.279V103.721L403.284 103.719ZM408.655 83.6885H355.338V89.7839H408.655V83.6885ZM421.519 72.7523C421.71 72.0225 422.011 71.3692 422.445 70.7925C422.874 70.2185 423.426 69.7484 424.066 69.4231C424.722 69.0869 425.487 68.9229 426.389 68.9229C427.291 68.9229 428.057 69.0869 428.71 69.4231C429.358 69.7593 429.902 70.2158 430.334 70.7925C430.768 71.3774 431.08 72.0444 431.252 72.7523C431.441 73.4931 431.534 74.2557 431.534 75.0183C431.534 75.7618 431.438 76.4916 431.252 77.1968C431.077 77.8856 430.765 78.5334 430.334 79.0965C429.902 79.6595 429.358 80.1078 428.71 80.4413C428.057 80.7747 427.283 80.947 426.389 80.947C425.496 80.947 424.722 80.7747 424.066 80.4413C423.415 80.1078 422.874 79.6595 422.445 79.0965C422.011 78.5389 421.713 77.902 421.519 77.1968C421.33 76.4861 421.237 75.7536 421.237 75.0183C421.237 74.2283 421.33 73.4794 421.519 72.7523ZM413.884 71.607C413.532 72.6539 413.351 73.7664 413.351 74.9636C413.351 76.7512 413.641 78.3913 414.22 79.8809C414.797 81.3761 415.639 82.6444 416.741 83.6885C417.837 84.7327 419.195 85.5417 420.821 86.1212C422.445 86.6979 424.304 86.9904 426.389 86.9904C428.475 86.9904 430.334 86.7007 431.952 86.1212C433.575 85.5445 434.942 84.7327 436.041 83.6885C437.137 82.6416 437.982 81.3761 438.561 79.8809C439.13 78.3913 439.428 76.7512 439.428 74.9636C439.428 73.7664 439.242 72.6539 438.87 71.607C438.49 70.5602 437.993 69.609 437.358 68.7534H441.109V62.5979H431.151V56.6118H421.918C421.51 56.6118 421.207 56.7813 421.026 57.1148C420.832 57.4564 420.923 57.8446 421.305 58.2928C421.827 58.8914 422.142 59.4764 422.262 60.0531C422.374 60.6299 422.421 61.4225 422.421 62.4339V62.5979H410.957V68.7534H415.374C414.74 69.609 414.245 70.5602 413.892 71.607M442.609 58.6837C442.24 58.6837 441.981 58.8204 441.83 59.1019C441.68 59.3834 441.767 59.7661 442.109 60.2499C442.44 60.7337 442.71 61.2039 442.921 61.674C443.123 62.1387 443.221 62.8794 443.221 63.8826V85.9791H451.225V75.5786H454.972V87.4961H462.975V58.3448H454.972V68.9721H451.225V58.681H442.606L442.609 58.6837ZM432.067 97.8719C432.457 97.1831 433.1 96.6091 433.994 96.1663C434.887 95.718 436.052 95.3791 437.492 95.1276C438.93 94.8844 440.688 94.7723 442.784 94.7723C444.881 94.7723 446.627 94.8844 448.068 95.1276C449.495 95.3791 450.653 95.718 451.536 96.1663C452.414 96.6119 453.042 97.1831 453.431 97.8719C453.83 98.5635 454.026 99.3507 454.026 100.25C454.026 101.149 453.83 101.885 453.431 102.573C453.042 103.265 452.411 103.839 451.536 104.304C450.656 104.771 449.497 105.126 448.068 105.372C446.627 105.613 444.864 105.733 442.784 105.733C440.704 105.733 438.93 105.613 437.492 105.372C436.052 105.126 434.887 104.768 433.994 104.304C433.097 103.839 432.457 103.265 432.067 102.573C431.673 101.885 431.476 101.108 431.476 100.25C431.476 99.3917 431.67 98.5635 432.067 97.8719ZM422.585 100.247C422.585 102.002 423.011 103.604 423.872 105.058C424.73 106.507 426.015 107.756 427.729 108.778C429.453 109.803 431.547 110.598 434.048 111.159C436.555 111.716 439.466 112.003 442.787 112.003C446.108 112.003 448.904 111.719 451.424 111.159C453.947 110.598 456.046 109.803 457.749 108.778C459.444 107.759 460.745 106.509 461.633 105.058C462.533 103.607 462.981 102.005 462.981 100.247C462.981 96.6337 461.245 93.7692 457.774 91.6563C454.311 89.557 449.309 88.502 442.79 88.502C436.271 88.502 431.069 89.557 427.674 91.6563C424.29 93.7692 422.59 96.6337 422.59 100.247" fill="#0046FF"/>
</svg>
