<svg width="720" height="180" viewBox="0 0 720 180" fill="none" xmlns="http://www.w3.org/2000/svg">
<path d="M197.219 85.4632C195.562 70.3835 211.357 58.2706 232.514 58.4548C253.671 58.6184 272.168 70.9768 273.825 86.0361C275.482 101.136 259.686 113.208 238.53 113.045C217.373 112.901 198.876 100.543 197.219 85.4632ZM277.774 90.1487C275.871 71.4474 254.571 56.1222 230.223 55.9176C205.853 55.713 187.684 70.7108 189.587 89.4121C191.49 108.113 212.79 123.439 237.138 123.643C261.487 123.827 279.697 108.85 277.774 90.1487Z" fill="#FBB584"/>
<path d="M241.007 124.012C229.017 136.554 209.763 137.598 197.998 126.344C186.253 115.091 186.437 95.8166 198.448 83.2945C210.438 70.7724 229.712 69.7289 241.436 80.9619C253.181 92.2154 252.997 111.49 240.986 124.012M196.586 82.8853C182.652 97.4534 182.427 119.858 196.074 132.933C209.722 146.007 232.106 144.8 246.04 130.232C259.995 115.664 260.22 93.259 246.552 80.1844C232.904 67.1099 210.52 68.3171 196.566 82.8853" fill="#F89B6C"/>
<path d="M197.854 35.9888C222.796 26.6381 247.472 36.0911 252.956 57.1044C258.439 78.1178 242.664 102.753 217.722 112.083C192.78 121.434 168.104 111.981 162.62 90.9673C157.116 69.9539 172.912 45.3394 197.854 35.9888ZM174.692 44.0094C148.809 64.5113 142.221 94.2001 159.96 110.323C177.721 126.467 213.077 122.927 238.981 102.425C264.864 81.944 271.452 52.2552 253.692 36.1115C235.932 19.9883 200.555 23.5281 174.692 44.0094Z" fill="#F37321"/>
<path d="M337.356 60.7672V107.152H330.092V82.6809H302.593V107.152H295.329V60.7672H302.593V76.338H330.092V60.7672H337.356Z" fill="black"/>
<path d="M354.789 107.152C351.392 107.152 348.712 106.211 346.727 104.308C344.701 102.405 343.699 99.97 343.699 96.9827V94.5069C343.699 91.4787 344.701 89.0234 346.727 87.1206C348.712 85.1768 351.392 84.2151 354.789 84.2151H373.735V84.031C373.735 80.3071 371.689 78.4656 367.618 78.4656H346.543V72.2864H367.495C371.853 72.2864 375.188 73.3913 377.48 75.6215C379.812 77.7699 380.999 80.88 380.999 84.9517V97.2487C380.999 100.4 379.935 102.875 377.787 104.696C375.843 106.354 373.122 107.172 369.602 107.172H354.768L354.789 107.152ZM368.068 90.3738H356.569C352.845 90.3738 351.003 91.9493 351.003 95.1003V96.2461C351.003 99.3562 352.865 100.911 356.569 100.911H368.068C371.853 100.911 373.756 99.3562 373.756 96.2461V95.1003C373.756 91.9493 371.853 90.3738 368.068 90.3738Z" fill="black"/>
<path d="M402.281 72.2659H409.422C413.944 72.2659 417.504 73.5754 420.082 76.1944C422.66 78.8134 423.949 82.4759 423.949 87.1614V107.152H416.686V87.5297C416.686 84.6243 416.113 82.4963 414.988 81.1664C413.576 79.4272 411.53 78.5678 408.87 78.5678H402.691C400.112 78.5678 398.087 79.4272 396.634 81.1664C395.591 82.4963 395.059 84.6243 395.059 87.5297V107.152H387.795V87.1614C387.795 82.4759 389.084 78.8338 391.662 76.1944C394.24 73.5754 397.78 72.2659 402.261 72.2659H402.281Z" fill="black"/>
<path d="M457.443 102.487C454.865 105.597 451.652 107.152 447.806 107.152H443.325C439.294 107.152 436.081 105.883 433.688 103.346C431.416 100.973 430.291 97.5965 430.291 93.2384V72.2864H437.493V93.2997C437.493 95.8369 438.046 97.6988 439.13 98.8651C440.378 100.195 442.015 100.87 444.041 100.87H447.192C449.258 100.87 450.916 100.195 452.164 98.8651C453.289 97.6988 453.862 95.8369 453.862 93.2997V72.2864H461.003V93.2997C461.003 95.8369 461.555 97.6988 462.64 98.8651C463.888 100.195 465.525 100.87 467.55 100.87H470.701C472.768 100.87 474.425 100.195 475.673 98.8651C476.799 97.6988 477.372 95.8369 477.372 93.2997V72.2864H484.574V93.2384C484.574 97.5965 483.408 100.973 481.055 103.346C478.681 105.883 475.448 107.152 471.356 107.152H466.937C463.172 107.152 460.021 105.597 457.422 102.487H457.443Z" fill="black"/>
<path d="M505.914 78.5678C503.336 78.5678 501.31 79.4272 499.857 81.1664C498.814 82.4963 498.282 84.6243 498.282 87.5297V107.152H491.018V60.644H498.282V74.3938C500.389 72.982 502.783 72.2659 505.484 72.2659H512.625C517.147 72.2659 520.707 73.5754 523.285 76.1944C525.863 78.8133 527.152 82.4759 527.152 87.1614V107.152H519.889V87.5297C519.889 84.6243 519.316 82.4963 518.19 81.1664C516.778 79.4272 514.732 78.5678 512.072 78.5678H505.893H505.914Z" fill="black"/>
<path d="M544.237 107.152C540.84 107.152 538.16 106.211 536.175 104.308C534.15 102.405 533.147 99.97 533.147 96.9827V94.5069C533.147 91.4787 534.15 89.0234 536.175 87.1206C538.16 85.1768 540.84 84.2151 544.237 84.2151H563.184V84.031C563.184 80.3071 561.138 78.4656 557.066 78.4656H535.991V72.2864H556.943C561.301 72.2864 564.636 73.3913 566.928 75.6215C569.261 77.7699 570.447 80.88 570.447 84.9517V97.2487C570.447 100.4 569.383 102.875 567.235 104.696C565.291 106.354 562.57 107.172 559.051 107.172H544.216L544.237 107.152ZM557.496 90.3738H545.996C542.273 90.3738 540.431 91.9493 540.431 95.1003V96.2461C540.431 99.3562 542.293 100.911 545.996 100.911H557.496C561.281 100.911 563.184 99.3562 563.184 96.2461V95.1003C563.184 91.9493 561.281 90.3738 557.496 90.3738Z" fill="black"/>
</svg>
