<svg width="686" height="180" viewBox="0 0 686 180" fill="none" xmlns="http://www.w3.org/2000/svg">
<rect width="686" height="180" fill="white"/>
<path d="M248.293 61.4714H240.02V110.81H248.293V61.4714Z" fill="#004999"/>
<path d="M259.72 61.4714V110.81H274.746C287.522 110.791 293.563 106.289 293.582 97.2468C293.582 91.6 290.374 87.304 285.083 85.7094L284.595 85.5593L285.064 85.3717C289.998 83.2893 292.343 79.7437 292.362 74.3783C292.362 65.9363 286.603 61.509 274.972 61.4714H259.738M273.321 88.9924C279.23 88.9924 284.896 89.9491 284.914 96.6464C284.914 99.0665 284.07 100.999 282.288 102.124C280.506 103.25 277.786 103.756 274.015 103.756H267.993V88.9736H273.321M276.041 68.5064C278.405 68.5064 284.07 69.3319 284.089 75.0537C284.089 78.2054 282.813 80.0063 280.731 80.9068C278.667 81.826 275.835 81.9386 272.645 81.9386H267.993V68.4877H276.041" fill="#004999"/>
<path d="M339.878 61.4714C337.271 64.1916 317.685 84.8652 317.685 84.8652C317.685 84.8652 338.94 107.921 341.604 110.81H330.086C328.998 109.591 310.8 88.5796 310.8 88.5796V110.81H302.546V61.4714H310.8V81.4321C310.8 81.4321 328.191 62.5783 329.223 61.4714H339.878Z" fill="#004999"/>
<path d="M432.985 89.6865V94.7517H412.912V89.7053H406.365V110.641H439.682V89.6865H433.004M432.985 99.498V105.501H412.912V99.498H432.985ZM419.928 83.5708C422.348 81.7323 423.924 79.2372 424.524 76.3669H433.023V87.0976H439.626V61.4715H433.023V71.5831H424.618C424.13 68.5252 422.648 65.9926 420.153 64.0791C417.639 62.1281 414.675 61.1338 411.298 61.1338C407.659 61.1338 404.489 62.3344 401.75 64.6982C398.973 67.062 397.585 70.1011 397.604 73.7405C397.604 77.3237 398.992 80.3628 401.75 82.7453C404.489 85.1654 407.659 86.3472 411.298 86.3472C414.6 86.3472 417.489 85.428 419.947 83.5708H419.928ZM406.233 79.331C404.901 77.8114 404.245 75.9917 404.245 73.7968C404.245 71.6019 404.92 69.7822 406.271 68.3189C407.603 66.8744 409.272 66.1427 411.28 66.1427C413.437 66.1427 415.088 66.8744 416.345 68.3189C417.602 69.7822 418.221 71.6019 418.221 73.7968C418.221 75.9917 417.602 77.8114 416.307 79.331C415.013 80.8506 413.343 81.5822 411.186 81.5822C409.235 81.5822 407.603 80.8506 406.252 79.331H406.233ZM384.678 61.4527V110.81H391.282V61.4527H384.678ZM351.454 67.531H368.732V71.283C368.488 83.1956 360.159 93.1008 348.996 95.7085L348.696 95.7835L352.073 99.9295H352.204C364.886 96.1962 375.392 84.3774 375.392 71.3768V62.7284H351.435V67.531H351.454Z" fill="#004999"/>
<path d="M459.25 94.6765H452.571V110.623H485.852V105.876H459.25V94.6765Z" fill="#004999"/>
<path d="M479.867 63.2161C476.79 61.115 473.094 60.0457 468.798 60.0457C464.502 60.0457 460.788 61.115 457.711 63.2161C454.634 65.336 453.059 68.3001 453.059 72.0896C453.059 75.8791 454.634 78.7494 457.711 80.8505C460.788 82.9329 464.502 83.9834 468.798 83.9834C473.094 83.9834 476.79 82.9329 479.867 80.8505C482.943 78.7494 484.5 75.8041 484.5 72.0896C484.5 68.3751 482.943 65.336 479.867 63.2161ZM475.233 77.2673C473.563 78.6368 471.425 79.2934 468.798 79.2934C466.172 79.2934 464.089 78.6368 462.42 77.2673C460.75 75.8979 459.925 74.2095 459.925 72.0896C459.925 69.9697 460.769 68.225 462.42 66.7805C464.108 65.336 466.209 64.6043 468.798 64.6043C471.387 64.6043 473.563 65.336 475.214 66.7805C476.884 68.225 477.709 69.9885 477.709 72.0896C477.709 74.1907 476.884 75.8979 475.233 77.2673Z" fill="#004999"/>
<path d="M490.691 86.4596H446.661V91.6374H490.691V86.4596Z" fill="#004999"/>
<path d="M187.829 85.8029C185.371 88.5606 182.294 90.7743 178.749 92.1438L176.704 92.9317V73.6839L178.711 74.4719C182.276 75.8413 185.352 78.0363 187.829 80.7752C189.592 77.9425 190.68 74.6595 190.905 71.0951C191.468 61.8651 185.69 53.4044 177.754 50.4591L171.226 48.2829C168.262 47.3074 165.129 48.9207 164.153 51.8661L150.29 93.4195C149.296 96.3835 150.946 99.5728 153.911 100.548L185.352 111.054C188.542 107.64 190.624 103.137 190.943 98.0907C191.224 93.6071 190.042 89.3673 187.829 85.8029ZM169.669 72.5396V94.0948H166.555V72.5396H169.669Z" fill="#00A5E3"/>
<path d="M216.589 63.441L187.736 53.7983C191.601 58.0381 193.983 63.6661 194.002 69.8381C194.002 74.7157 192.483 79.387 189.837 83.3078C192.501 87.1912 194.021 91.8624 194.04 96.74C194.04 102.574 191.939 107.921 188.449 112.086L199.292 115.706C202.257 116.701 205.389 115.069 206.365 112.104L220.229 70.5698C221.204 67.6245 219.553 64.4165 216.608 63.441M208.935 94.0386H205.033L197.004 83.2703L205.164 72.4833H209.085L200.925 83.2891L208.916 94.0386H208.935Z" fill="#004999"/>
<path d="M186.029 83.3079C184.284 81.2443 182.146 79.5184 179.707 78.2615V88.3919C182.146 87.1162 184.284 85.3715 186.029 83.3079Z" fill="#E8390E"/>
<path d="M529.525 94.8453C526.58 93.1006 523.053 92.2377 518.926 92.2377C514.799 92.2377 511.253 93.1006 508.327 94.8453C505.381 96.5712 503.918 98.9913 503.918 102.087C503.918 105.182 505.381 107.527 508.327 109.272C511.253 110.998 514.78 111.861 518.926 111.861C523.072 111.861 526.561 110.998 529.525 109.272C532.452 107.546 533.915 105.163 533.915 102.087C533.915 99.01 532.452 96.5712 529.525 94.8453ZM525.154 105.876C523.541 106.889 521.477 107.377 518.945 107.377C516.412 107.377 514.386 106.889 512.754 105.876C511.159 104.882 510.315 103.625 510.315 102.068C510.315 100.511 511.141 99.2164 512.754 98.1471C514.386 97.0778 516.45 96.5525 518.945 96.5525C521.44 96.5525 523.541 97.0778 525.154 98.1471C526.786 99.2164 527.574 100.511 527.574 102.068C527.574 103.625 526.786 104.882 525.154 105.876Z" fill="#004999"/>
<path d="M511.309 62.0903H496.357V66.5177H511.309V62.0903Z" fill="#004999"/>
<path d="M528.98 61.4525V72.8398H525.265V61.4525H518.943V89.3486H525.265V77.286H528.98V91.2809H535.302V61.4525H528.98Z" fill="#004999"/>
<path d="M516.692 68.1312H493.729V72.5398H498.551C495.756 74.3408 493.936 77.1923 493.936 80.4753C493.936 85.9532 499.001 90.3806 505.229 90.3806C511.458 90.3806 516.56 85.9345 516.56 80.4753C516.56 77.2111 514.722 74.3595 511.945 72.5398H516.692V68.1312ZM505.229 86.366C502.265 86.366 499.864 83.7208 499.864 80.4565C499.864 77.1923 502.265 74.5471 505.229 74.5471C508.193 74.5471 510.632 77.1923 510.632 80.4565C510.632 83.7208 508.212 86.366 505.229 86.366Z" fill="#004999"/>
</svg>
