<svg width="76" height="76" viewBox="0 0 76 76" fill="none" xmlns="http://www.w3.org/2000/svg">
<rect width="76" height="76" fill="white"/>
<path d="M64.1117 49.0445H56.0986L57.8906 38.7661H65.9037L64.1117 49.0445ZM57.9582 38.4956L58.3301 36.3317H66.3432L65.9713 38.4956H57.9582ZM56.4706 33.0521L56.741 31.463H67.2223L66.918 33.0521H56.4706ZM58.4316 35.757L58.7359 33.8974H66.7828L66.4447 35.757H58.4316ZM56.9439 30.3134L57.1806 29.0286H67.6281L67.4252 30.3134H56.9439ZM57.5525 27H68L67.8985 27.6086H57.4511L57.5525 27Z" fill="#231F20"/>
<path d="M53.3036 40.93H41.9771L42.349 38.7662H53.6755L53.3036 40.93ZM42.4166 38.4957L42.7885 36.3318H54.1151L53.7431 38.4957H42.4166ZM42.8899 35.757L43.0252 34.9794H54.3517L54.2165 35.757H42.8899Z" fill="#231F20"/>
<path d="M38.1347 49.0445H30.1216L31.9135 38.7661H39.9267L38.1347 49.0445ZM31.9812 38.4956L32.3531 36.3317H40.3662L39.9943 38.4956H31.9812ZM32.4545 35.757L32.7926 33.8974H40.8057L40.4676 35.757H32.4545ZM32.9279 33.0521L33.2322 31.463H41.2453L40.941 33.0521H32.9279ZM33.435 30.3134L33.6379 29.0286H41.651L41.4481 30.3134H33.435ZM33.9084 27.6086L34.0098 27H42.0229L41.9215 27.6086H33.9084Z" fill="#231F20"/>
<path d="M20.4423 49.0445H12.4292L14.2212 38.7661H22.2343L20.4423 49.0445ZM8 33.0521L8.27049 31.463H30.7545L30.4841 33.0521H8ZM8.47335 30.3134L8.71002 29.0286H31.1941L30.9574 30.3134H8.47335ZM14.2888 38.4956L14.6607 36.3317H22.6738L22.3019 38.4956H14.2888ZM14.7621 35.757L15.0664 33.8974H23.0795L22.7752 35.757H14.7621ZM9.08194 27H31.566L31.4646 27.6086H8.98051L9.08194 27Z" fill="#231F20"/>
</svg>
