<svg width="76" height="76" viewBox="0 0 76 76" fill="none" xmlns="http://www.w3.org/2000/svg">
<rect width="76" height="76" fill="white"/>
<path d="M51.8693 36.7722C47.1755 33.5813 41.1694 34.8827 38.0167 39.68C35.3812 43.6822 31.4062 44.1831 29.8652 44.1831C24.8502 44.1831 21.4143 40.6546 20.396 37.0009C20.3851 36.9628 20.3797 36.9356 20.3688 36.8974C20.3579 36.8593 20.347 36.8158 20.3361 36.7722C19.9386 35.2475 19.8352 34.5233 19.8352 32.9007C19.8352 24.1665 28.798 14.4414 41.7031 14.4414C54.6082 14.4414 62.482 24.5041 64.4313 30.0964C64.3987 29.9984 64.366 29.9003 64.3333 29.7969C60.5816 18.8629 50.2085 11 38.0003 11C22.634 11 10.1699 23.4587 10.1699 38.8305C10.1699 52.5688 20.0802 64.3304 33.8239 64.3304C44.7851 64.3304 52.1524 58.1828 55.5339 49.7155C57.3907 45.0816 56.073 39.6364 51.8693 36.7777V36.7722Z" fill="#003863"/>
<path d="M64.6054 30.6407C62.9827 25.1846 55.3594 14.4466 41.7029 14.4466C28.7978 14.4466 19.835 24.1717 19.835 32.9059C19.835 34.5231 19.933 35.2528 20.3359 36.7774C20.1671 36.1131 20.08 35.4433 20.08 34.7899C20.08 25.6964 29.1898 19.3909 38.5501 19.3909C51.2265 19.3909 61.4962 29.666 61.4962 42.337C61.4962 52.2745 55.7787 60.8671 47.4748 65C58.1855 61.1284 65.8306 50.8751 65.8306 38.8303C65.8306 35.9824 65.4494 33.4667 64.6054 30.6407Z" fill="#E4032E"/>
</svg>
