<svg width="76" height="76" viewBox="0 0 76 76" fill="none" xmlns="http://www.w3.org/2000/svg">
<rect width="76" height="76" fill="white"/>
<path d="M57.2049 38.9747V39.1053C57.3028 39.3629 57.4817 39.4355 57.6742 39.6242H58.2887C58.2887 39.4936 58.4271 39.6242 58.4271 39.4936C58.5689 39.4936 58.7816 39.4355 58.8829 39.2359H58.9842C59.0855 39.04 59.234 38.9094 59.44 38.9094C59.6898 38.5828 59.9464 38.2562 60.1962 37.9333C60.1962 37.8027 60.2469 37.6684 60.3515 37.6067C60.5001 37.0189 60.6014 36.3658 60.858 35.7816C60.858 35.582 60.9593 35.3171 60.9086 35.1248C60.9593 35.1248 61.0065 35.1248 61.0065 35.0631C60.9593 34.7982 61.1078 34.6676 61.2091 34.537C61.3104 34.537 61.4184 34.537 61.4623 34.4027V34.2794C61.7189 34.2794 62.0059 34.4753 62.2051 34.7366H62.5326C62.5326 34.8708 62.6035 34.8708 62.671 34.9289C62.9344 34.9289 63.5219 34.8708 63.792 34.9942C63.792 35.1937 64.0519 35.1248 64.1228 35.3171C64.1836 35.5131 64.1836 35.709 64.3254 35.9086C64.3254 35.9703 64.3254 36.0392 64.2545 36.1081C64.3896 36.3041 64.5179 36.627 64.3254 36.823C64.3896 37.0842 64.3254 37.4108 64.4571 37.672C64.3254 37.8063 64.3895 37.9986 64.3895 38.1329C64.5212 38.3905 64.5212 38.7207 64.5888 39.0472C64.8555 39.3702 64.7812 39.7693 64.9905 40.0923V40.4805C65.1222 40.4805 64.9905 40.6837 65.1222 40.6837C65.1931 41.0756 64.9905 41.5255 64.9905 41.921C64.9196 41.9864 64.8555 42.0553 64.7812 42.117V42.2476C64.7171 42.2476 64.6529 42.2476 64.6529 42.1859C64.5179 42.3819 64.3254 42.5161 64.1836 42.7084C64.0485 42.6359 63.9878 42.7701 63.9203 42.7701C63.792 42.7701 63.9203 42.9661 63.792 42.9661C63.6535 42.9661 63.5219 43.0314 63.451 43.0931C63.3193 43.162 62.8702 43.0277 62.7318 43.162L62.6677 43.0931C62.5968 43.162 62.5292 43.2309 62.4009 43.2309C62.4009 43.162 62.4009 43.0931 62.3334 43.0931C62.2625 43.2926 61.9755 43.4269 61.8 43.3543C61.7392 43.2309 61.7696 43.1257 61.6143 43.0713C61.5602 42.6576 61.5602 42.3057 61.361 41.9537C61.4151 41.9537 61.4151 41.892 61.4151 41.8376C61.361 41.6562 61.2598 41.482 61.2598 41.3006C61.1045 41.0647 61.0572 40.72 60.8546 40.5386C60.9052 40.4805 60.7533 40.4188 60.8006 40.3571C60.7061 40.2483 60.652 40.1866 60.5507 40.0669C60.4494 40.0669 60.4495 40.1249 60.3988 40.1866C60.3482 40.4841 60.0983 40.72 60.0477 41.0103L59.9937 40.9522C59.9464 41.1264 59.7945 41.2461 59.7945 41.4203C59.6898 41.482 59.6391 41.6562 59.5412 41.7215V41.8376C59.1867 42.1859 58.9943 42.7592 58.5689 43.0023C58.4608 43.26 58.1975 43.2999 58.0894 43.572C57.9341 43.572 57.6809 43.6446 57.4783 43.7099C57.35 43.6446 57.1542 43.5031 57.0158 43.6446C57.0158 43.572 56.9516 43.572 56.8875 43.572L56.8166 43.6446C56.6849 43.5031 56.4891 43.6446 56.2865 43.572C55.8915 43.2309 55.4323 43.0931 54.9698 42.8173C54.8381 42.8173 54.9698 42.6141 54.8381 42.6141C54.7672 42.6141 54.703 42.6141 54.6423 42.5488C54.6423 42.342 54.7064 42.2004 54.5072 42.0662L54.5714 42.0009C54.5714 41.9283 54.5072 41.9283 54.4431 41.9283C54.3722 41.5183 54.1764 41.1772 54.1156 40.7599C54.0683 40.7115 54.0233 40.6668 53.9805 40.6257C53.9805 40.4152 53.9096 40.212 53.8489 40.0741C53.778 39.7984 54.0075 39.5698 53.886 39.3085C53.886 39.2432 53.886 39.1742 53.9434 39.1126C53.886 38.786 53.9434 38.5864 54.0075 38.2599C53.9434 38.2599 53.9434 38.1945 53.9434 38.1329C54.0717 37.868 54.0717 37.6103 54.0717 37.3491C54.1358 37.1532 54.2641 36.9572 54.3215 36.7576L54.2641 36.6996C54.3857 36.5653 54.3215 36.373 54.514 36.2388C54.514 36.1771 54.514 36.1154 54.4532 36.1154C54.4532 35.9775 54.5781 35.9158 54.6457 35.8469C54.6997 35.7163 54.9495 35.201 55.1015 35.1067L55.0542 35.0268C55.1589 34.8599 55.4458 34.7874 55.6687 34.7692C55.8341 34.7474 56.1616 34.9289 56.2528 34.9833C56.3237 35.1393 56.2595 35.2627 56.3473 35.455H56.4452V35.5856C56.4452 35.6509 56.4925 35.6509 56.5431 35.6509C56.5904 35.8433 56.6815 36.0428 56.6377 36.2351C56.6377 36.3077 56.6815 36.3077 56.7356 36.3077C56.6815 36.4311 56.8233 36.5653 56.8233 36.6996C56.7356 36.8266 56.8233 37.0225 56.7761 37.2221C56.9179 37.545 56.8706 37.9405 57.0124 38.2635C57.0124 38.5247 57.1103 38.786 57.2049 38.9819V38.9747Z" fill="#231F20"/>
<path d="M32.7807 41.3951C32.7807 41.3951 33.0271 41.5657 33.0947 41.6891C33.1554 41.8197 33.2905 41.9793 33.3749 42.0156C33.5066 42.0737 33.6382 42.1499 33.6382 42.1499L33.7193 42.3349L33.9218 42.5381C34.1413 42.6107 34.1886 42.4728 34.3506 42.7196C34.4182 42.7196 34.5026 42.7196 34.5026 42.7849L34.5701 42.7196C34.6444 42.8574 34.7896 42.9228 34.8638 42.9917C35.0833 42.9917 35.269 43.0788 35.4175 43.2239C35.4952 43.2239 35.4986 43.3763 35.4986 43.311C35.7214 43.3763 35.8733 43.5287 36.0185 43.3945C36.0928 43.3945 36.1637 43.3945 36.1637 43.4598L36.238 43.3945C36.3798 43.3255 36.4135 43.5178 36.5587 43.4416C36.633 43.4416 36.633 43.5178 36.633 43.5795H36.7782C36.92 43.7174 37.5446 43.536 37.6864 43.6739C38.5102 43.7827 39.8539 43.5795 39.8539 43.5795C39.8607 43.4525 40.0599 43.5904 40.0666 43.4598L40.1308 43.5287C40.4077 43.6122 40.698 43.2711 40.9782 43.4162C41.0233 43.3727 41.0705 43.3291 41.12 43.2856C41.2618 43.2312 41.461 43.5033 41.6028 43.311C41.5961 43.3799 41.6704 43.3836 41.7413 43.3908C41.7413 43.34 41.7413 43.2941 41.7413 43.2529C41.9574 43.1332 42.2207 43.1586 42.3794 42.9772C42.4503 42.9881 42.5887 42.999 42.6562 43.0098C42.7058 42.9687 42.7575 42.9288 42.8116 42.8901C43.1661 42.803 43.4834 42.491 43.8886 42.393C43.9527 42.3132 44.0979 42.3023 44.1486 42.168C44.2195 42.1571 44.2937 42.1571 44.3613 42.1462C44.4254 42.0737 44.4862 41.9975 44.5537 41.9285C44.763 41.9757 44.9521 41.6564 45.1581 41.6201C45.1479 41.5621 45.1378 41.5004 45.2053 41.475L45.2796 41.533C45.3696 41.4725 45.4282 41.3964 45.4552 41.3044C45.6713 41.3298 45.7894 41.0468 45.9076 40.8944C45.9549 40.8896 46.001 40.8823 46.046 40.8726C46.082 40.8218 46.1214 40.7698 46.1642 40.7166C46.2092 40.7093 46.2542 40.7021 46.2992 40.6948C46.4849 40.5243 46.593 40.3066 46.8496 40.1977C46.8394 40.1324 46.8361 40.0635 46.9002 40.0562C47.0488 40.0961 47.0184 39.8929 47.0758 39.8167C47.1332 39.7732 47.3222 39.6353 47.3695 39.697C47.356 39.8058 47.5451 39.4176 47.5417 39.5228C47.589 39.5845 47.8253 38.9169 47.8827 38.8769L47.3054 37.2441C47.0893 37.5707 46.3263 38.6411 45.9245 38.7391C45.9312 39.0838 45.5801 39.0947 45.337 39.2906C45.3539 39.3523 45.3606 39.4248 45.2999 39.4357C45.0973 39.4865 45.0028 39.7296 44.8677 39.7623C44.8576 39.6934 44.7901 39.7151 44.7192 39.7296C44.6651 39.8131 44.5334 39.8494 44.4963 39.9945C44.2904 40.0453 44.233 40.2594 44.1114 40.4118L44.0371 40.3538C43.7873 40.6005 43.4328 40.5678 43.264 40.869C42.869 41.0649 42.5347 41.1375 42.1262 41.3008C42.0553 41.3117 41.9877 41.3117 41.9877 41.2464C41.9236 41.3843 41.6366 41.2645 41.5792 41.406C41.1572 41.4314 40.8061 41.3951 40.3942 41.4931C40.3874 41.3589 40.1848 41.504 40.1747 41.3697C39.8404 41.5258 39.4893 41.3226 39.1382 41.3226C39.0707 41.2536 38.9288 41.2536 38.8613 41.123C38.5102 41.1883 38.3076 41.123 38.0949 40.9198C37.889 40.9198 37.7438 40.7202 37.5378 40.6513V40.5207C37.4906 40.4771 37.4444 40.4336 37.3994 40.39C37.3994 40.1868 37.6054 40.1868 37.7438 40.1215C37.889 39.9183 38.2603 39.9655 38.3988 39.7732C38.3988 39.7006 38.5878 39.5736 38.5878 39.5047C38.6587 39.374 38.706 39.2471 38.7769 39.2471C38.9829 39.1128 38.8478 38.9568 39.1247 38.8951C39.1247 38.8298 39.3408 38.6629 39.2732 38.6012C39.5535 38.3943 39.5535 38.2819 39.621 37.8791C39.7594 37.6868 39.9586 37.4654 39.9586 37.2006C40.0295 37.1352 39.9451 36.845 40.0869 36.776C40.1511 36.3152 39.9755 36.0685 39.9755 35.6004C39.9282 35.5593 39.8821 35.5157 39.8371 35.4697C39.8371 35.2702 39.6953 35.1396 39.7628 34.9364C39.5535 34.7404 39.6109 34.6715 39.3982 34.4719L39.28 34.3376H39.1382C39.0707 34.207 38.8613 34.1453 38.8613 34.0111C38.5811 33.9421 38.3076 33.7426 38.024 33.6083L37.9565 33.6809L37.8856 33.6083C37.8383 33.6567 37.7899 33.7014 37.7404 33.7426C37.7404 33.5466 37.5344 33.7426 37.4635 33.6083C37.3285 33.6083 37.1833 33.5466 37.0516 33.6809C36.6296 33.5466 36.1806 33.7789 35.7585 33.5793C35.7585 33.7172 35.4851 33.5103 35.4851 33.7172C35.3399 33.7789 35.1441 33.7716 35.0698 33.8442H34.8605C34.6511 34.0365 34.4756 34.2723 34.0569 34.2723C33.9219 34.2723 34.0569 34.4719 33.9218 34.4719H33.7834C33.439 34.8057 33.1588 35.2012 32.7368 35.4697C32.7368 35.5351 32.5984 35.6004 32.6659 35.731C32.6659 35.7999 32.5983 35.7999 32.5274 35.7999C32.5274 35.9306 32.4566 35.9959 32.389 36.0612C32.389 36.1301 32.389 36.1991 32.4599 36.1991C32.4599 36.2644 32.3519 36.4313 32.281 36.4313C32.2135 36.6998 32.2135 36.9611 32.0041 37.0953C32.0041 37.6287 31.859 37.8827 31.8252 38.4669C31.8725 38.779 31.8995 39.2434 31.8995 39.5192C32.1155 39.6607 31.8421 39.6571 31.9906 39.8639C32.0649 39.8639 32.021 39.98 32.021 40.0526C32.0953 40.1868 32.3215 40.2957 32.2472 40.43C32.2472 40.5025 32.3721 40.5642 32.443 40.5642C32.5173 40.7057 32.3384 40.8545 32.4802 40.9234C32.4802 40.9996 32.7131 40.9452 32.6389 41.0795L32.7672 41.3843L32.7807 41.3951ZM37.3184 37.0627C37.1799 37.1316 37.3184 37.2768 37.1799 37.3421L37.2475 37.411C37.1935 37.9807 36.8626 38.7572 36.1198 39.3087C36.0523 39.3087 35.9848 39.3087 35.9848 39.2362C35.9848 39.0983 35.8396 38.8878 35.9105 38.7499C35.9105 38.6774 35.8396 38.6774 35.772 38.6774C35.9105 38.5322 35.6775 38.3943 35.7518 38.1839C35.6775 38.1839 35.6775 38.1113 35.6775 38.0424C35.8902 37.9045 35.7146 37.5416 35.9273 37.4038L35.8598 37.3312C35.9273 37.1897 36.0388 36.972 36.1772 36.8341V36.6889C36.4574 36.4095 36.8322 36.2862 37.1833 36.1483C37.2509 36.1483 37.3217 36.1483 37.3217 36.2209C37.5344 36.5003 37.3926 36.7796 37.3217 37.059L37.3184 37.0627Z" fill="#231F20"/>
<path d="M49.4248 36.424C49.4349 36.5147 49.445 36.609 49.4518 36.6997C49.9312 37.1932 49.84 38.0423 50.1608 38.6483C49.9987 38.8587 50.1101 39.12 50.0426 39.3123C50.1056 39.3703 50.1687 39.4248 50.2317 39.4756C50.1034 39.9582 50.4073 40.3791 50.3667 40.8508C50.315 40.9209 50.2643 40.9899 50.2148 41.0576C50.2216 41.152 50.2317 41.239 50.3161 41.2282L50.2418 41.3334L50.333 41.4096L50.2621 41.5184C50.3397 41.5076 50.3532 41.5946 50.3634 41.689C50.2081 41.8922 50.4883 42.1389 50.2486 42.353C50.3431 42.4292 50.3532 42.5235 50.3634 42.6106C50.127 42.8283 50.2722 43.2238 50.1034 43.5141L50.1878 43.5976L50.1068 43.6956L50.0156 43.6121C49.9312 43.6121 49.9312 43.7101 49.9379 43.7972C50.0224 43.9786 50.1979 44.1528 50.0325 44.3451L50.1236 44.4285C49.867 44.6317 49.7962 44.8676 49.7185 45.1325C49.6645 45.1929 49.6116 45.2558 49.5598 45.3211C49.651 45.4046 49.651 45.488 49.651 45.5751C49.4957 45.7674 49.418 45.9416 49.2627 46.1339C49.2627 46.221 49.3572 46.3952 49.1918 46.4932L49.2762 46.573C49.1986 46.7544 49.1276 47.0229 49.0534 47.208C49.1344 47.208 49.1344 47.2914 49.1344 47.3785C48.8981 47.5708 48.628 47.7704 48.7124 48.1187C48.5571 48.3909 48.3612 48.4852 48.2093 48.7574C48.2937 48.9279 47.9291 49.015 47.9291 49.1855C47.9358 49.367 47.6894 49.2907 47.7738 49.4613L47.8548 49.5484C47.8053 49.5484 47.7535 49.552 47.6995 49.5593C47.6477 49.6754 47.5701 49.7661 47.4665 49.8314C47.4665 49.9185 47.4733 50.0128 47.3923 50.0165C47.2504 50.1326 47.1795 50.2705 47.0276 50.4555C47.1086 50.539 46.771 50.724 46.8521 50.724C46.7609 50.8111 46.6731 50.8909 46.6596 51.0651C46.5786 51.0615 46.5009 51.0615 46.4942 51.1449V51.261C46.4435 51.3227 46.4233 51.3191 46.3152 51.3445C45.694 52.1101 44.7858 52.4077 44.1578 53.1697C43.9924 53.2458 43.8303 53.3293 43.6649 53.4091C43.4927 53.4853 43.5534 53.7502 43.4049 53.6559C43.4083 53.5652 43.1922 53.7321 43.1112 53.7284C42.9322 53.8917 42.6756 53.772 42.5169 53.7647C42.5237 53.6776 42.4258 53.6922 42.3515 53.6051L42.2671 53.6885C42.1962 53.5942 42.0172 53.4128 41.9362 53.4091C41.8687 53.3148 42.0206 53.2277 41.9463 53.2277L42.0307 53.1406C42.0375 53.0535 41.9058 53.0318 41.8282 53.0245C41.6796 52.8431 41.9868 52.9773 41.9193 52.7959L41.6121 52.7741C41.5378 52.5963 41.3893 52.5927 41.3184 52.4113C41.3352 52.2335 41.6796 52.2407 41.6999 52.0629C41.8586 52.0738 41.8147 52.0448 41.9767 51.9614L41.9193 51.8416C42.0881 51.7582 42.0611 51.6021 42.1422 51.613C42.1388 51.7001 42.1996 51.6021 42.2806 51.6021C42.3616 51.6058 42.4393 51.613 42.4494 51.5259C42.4562 51.4388 42.4629 51.3445 42.5473 51.2683C42.6013 51.2683 42.6554 51.2731 42.7094 51.2828C43.0538 50.9417 42.8343 51.1667 43.1854 50.7458C43.1944 50.6902 43.2 50.6297 43.2023 50.5644C43.2867 50.4773 43.3036 50.3067 43.4657 50.2269C43.4589 50.3176 43.4522 50.4047 43.5298 50.4083C43.7864 50.2378 43.6378 50.1471 43.5737 49.9693C43.63 49.9136 43.6885 49.8592 43.7493 49.806C43.7358 49.8931 43.8809 49.8205 43.8033 49.8205C43.7932 49.9076 43.8877 49.6137 43.9687 49.6173C44.1612 49.2908 44.0194 49.6754 44.3131 49.0767C44.3739 49.0041 44.519 48.9497 44.5359 48.9061C44.5157 48.8952 44.7149 48.819 44.6473 48.7247C44.6372 48.6594 44.6676 48.6267 44.4988 48.7138C44.5967 48.5433 44.8769 48.2856 44.8938 48.1042C45.1234 48.2022 44.9343 47.8103 45.0964 47.8139C45.0052 47.901 44.931 47.7269 44.9377 47.8212L45.2011 47.8103C45.3766 47.6434 44.9546 47.6507 45.1167 47.4656C45.1133 47.3713 45.0896 47.3205 45.012 47.3241C45.012 47.2406 44.9884 47.1644 45.0694 47.1608L45.1504 47.2443C45.2281 47.1499 45.0728 46.8524 45.2348 46.758C45.2348 46.6673 45.2281 46.5802 45.2281 46.4968C45.4644 46.3008 45.353 46.3371 45.4306 46.0686L45.3496 45.9815C45.3496 46.0686 45.5151 45.9053 45.4306 45.9053V45.7275C45.586 45.6296 45.7041 45.0454 45.6974 44.8712C45.7041 45.0417 45.5117 44.4648 45.6704 44.5446C45.9 44.1745 45.7446 43.6919 45.7818 43.2384C45.6096 43.1658 45.9101 43.0461 45.8155 42.8755C45.7379 42.8864 45.6602 42.8973 45.6501 42.8102C45.6996 42.7449 45.7458 42.6771 45.7885 42.607C45.7818 42.5199 45.775 42.4365 45.6974 42.4473C45.6839 42.3566 45.6805 42.2732 45.7548 42.2623C45.7413 42.1679 45.7413 42.0809 45.6568 42.0954C45.7041 42.0301 45.7525 41.9647 45.802 41.8994C45.7885 41.8123 45.7109 41.8232 45.6332 41.845C45.6805 41.4713 45.3429 41.2136 45.4644 40.8363C45.3901 40.8472 45.38 40.7601 45.3733 40.673C45.5792 40.3827 45.2922 40.0235 45.4239 39.7368C45.2618 39.6751 45.3226 39.4901 45.3057 39.3087C45.3766 39.2107 45.1741 39.1236 45.1639 39.0365C44.9681 38.612 45.0187 38.2854 44.8938 37.8319C44.7351 37.9842 44.6271 36.6127 44.4887 36.0684C44.2827 35.7237 44.4211 35.3354 44.2996 34.9798C44.384 34.9689 44.4684 34.9581 44.4549 34.8673C44.3502 34.6025 44.5933 34.4755 44.6541 34.1852C44.8263 34.167 44.9816 34.0509 45.1707 34.2106C45.3327 34.0981 45.2314 33.9276 45.2281 33.8332C45.5623 33.7897 45.8155 33.757 46.1565 33.7098C46.17 33.7969 46.17 33.8949 46.2646 33.8804C46.5144 33.8477 46.6191 34.0146 46.8689 33.982C46.8791 34.0799 46.8824 34.1707 46.9736 34.1525C47.139 34.1307 47.2336 34.2106 47.3281 34.2977C47.4091 34.2831 47.5003 34.2723 47.4868 34.1852L47.5847 34.265L47.659 34.1598C47.7569 34.2396 47.8379 34.2323 47.9223 34.2142C48.0169 34.2977 48.0405 34.5734 48.2059 34.4573C48.6145 35.1431 49.1006 35.7346 49.4248 36.4312V36.424Z" fill="#231F20"/>
<path d="M11.8877 38.0568C11.8573 37.9117 11.6615 37.8717 11.5804 37.8681C11.5028 37.8681 11.3475 38.0495 11.2631 37.908C11.2631 37.908 11.128 38.1439 10.9626 38.2673C10.8545 38.3507 10.6857 38.3362 10.6857 38.3362C10.6418 38.5648 10.6148 38.5902 10.8107 39.1163C10.8883 39.1345 10.9795 39.6388 11.0639 39.6534C11.0267 39.4574 11.307 40.0743 11.3981 40.1613C11.4364 40.1686 11.4747 40.1783 11.5129 40.1904C11.5636 40.2085 11.5399 40.2629 11.5197 40.3174L11.7763 40.5097C11.7965 40.5859 11.8472 40.6077 11.7932 40.7056C11.989 40.7238 12.1105 40.8544 12.276 40.927C12.3367 40.9524 12.2962 40.9959 12.2658 41.0467C12.3165 41.0757 12.3739 41.0975 12.4043 41.0467C12.5461 41.0467 12.4448 41.2027 12.4684 41.2789L12.5596 41.2535C12.5798 41.3297 12.6879 41.3878 12.6879 41.3878C12.8567 41.6599 13.6872 41.9974 13.8932 42.2514L13.9742 42.2078C14.0384 42.353 14.4064 42.3784 14.4064 42.5707L14.4807 42.5199C14.5144 42.5852 15.0648 42.7013 15.2167 42.7884C15.2977 42.734 15.1863 42.6469 15.2707 42.607C15.3585 42.6941 15.5509 42.8755 15.6387 42.9662C15.6387 42.9662 15.8784 42.9843 16.0439 43.0279C16.2566 43.2674 16.6989 43.115 16.9521 43.2456C16.9825 43.3145 17.0432 43.3327 17.1006 43.3436L17.1817 43.2964L17.2154 43.3726C17.3809 43.2855 17.472 43.3653 17.5767 43.2674L17.6037 43.3436L17.6881 43.2964C17.7106 43.3448 17.732 43.3932 17.7523 43.4415C17.9818 43.496 18.1844 43.6121 18.4275 43.4742C18.4545 43.5504 18.5187 43.5577 18.5727 43.5794C18.6267 43.5456 18.6819 43.5141 18.7381 43.4851C18.9069 43.5286 18.9407 43.6012 19.1365 43.5831L19.1669 43.652C19.41 43.5177 19.5822 43.5577 19.805 43.6157C19.8557 43.5032 19.9806 43.6556 20.0279 43.5431L20.0549 43.6157C20.2473 43.4706 20.5343 43.5504 20.7268 43.5395L20.7571 43.6157C20.8449 43.5649 20.8112 43.6157 20.8112 43.6157C20.9698 43.5323 21.3682 43.5286 21.4797 43.4307C21.7025 43.4923 21.6957 43.5395 22.0063 43.4923C22.0637 43.5069 22.192 43.5431 22.2562 43.5577C22.506 43.3835 22.7255 43.3871 22.9449 43.5177C23.1948 43.4669 23.5898 43.2601 23.8059 43.1404C23.8667 43.1549 23.9308 43.1767 23.995 43.1948C24.0895 43.1621 24.1503 43.1803 24.2144 43.0714C24.4946 42.9698 24.6939 42.8646 24.9471 42.6832C24.9741 42.7557 25.1328 42.6179 25.1665 42.6904C25.1845 42.6517 25.2059 42.6154 25.2307 42.5816C25.3522 42.6179 25.4434 42.4546 25.5717 42.4945C25.5942 42.4606 25.6156 42.4243 25.6358 42.3856C25.8215 42.3131 25.7472 42.2623 25.9329 42.1933C26.0916 42.0772 26.3212 41.6672 26.6892 41.4966C26.6791 41.366 26.9188 41.3007 26.9695 41.181C27.0032 41.1265 27.0674 41.1374 27.1315 41.1519L27.091 41.0757C27.1788 41.0395 27.1552 40.8471 27.2429 40.9342C27.2632 40.8798 27.3746 40.7238 27.3172 40.7093C27.4961 40.5641 27.4961 40.067 27.7561 40.0053C27.7696 39.969 27.7843 39.9315 27.8 39.8928C27.9047 39.7441 27.8608 39.4574 27.9249 39.4248C27.9486 39.3667 27.9249 39.3232 27.9756 39.3449C28.0397 39.1127 28.0904 38.7752 28.1512 38.4668C28.1005 38.4559 28.1208 38.4015 28.141 38.3435C28.195 38.3543 28.222 38.2963 28.2457 38.2382C28.1917 38.2237 28.2119 38.162 28.2389 38.1112L28.3132 38.0641C28.2052 38.0423 28.3301 37.8826 28.222 37.8572L28.2929 37.8101C28.2018 37.5343 28.3335 37.2513 28.2457 36.9791L28.32 36.932C28.1917 36.7759 28.2052 36.6126 28.32 36.4457C28.2828 36.3732 28.3031 36.3151 28.32 36.257C28.1748 36.1591 28.3503 36.0575 28.2626 35.9704C28.3132 35.7999 28.1343 35.6221 28.2423 35.4588C28.1748 35.3136 28.1579 35.2556 28.0836 35.1141C28.0971 35.056 28.114 34.9943 28.1309 34.9326C28.0735 34.9181 28.0195 34.9072 28.0296 34.8492C28.1241 34.7367 28.0228 34.6569 28.0566 34.5371C27.9452 34.5154 28.0026 34.4101 27.9655 34.3448C27.9351 34.0182 27.854 33.7751 27.6751 33.503C27.7494 33.3869 27.6008 32.9188 27.6042 32.7664L27.4995 32.7083C27.4556 32.5596 27.4016 32.4834 27.2969 32.3999C27.2969 32.354 27.3003 32.3068 27.3071 32.2584C27.2531 32.2511 27.1923 32.2475 27.199 32.1749C27.2035 32.129 27.2069 32.0806 27.2092 32.0298L27.1484 32.1024C27.0437 32.0189 26.9998 31.8738 27.0066 31.725C26.804 31.4202 26.7264 31.2025 26.4428 30.7562C26.328 30.8251 26.4394 30.5312 26.3043 30.5929C26.149 30.2155 26.0443 30.1285 25.8148 29.8962C25.8238 29.8503 25.8294 29.7995 25.8317 29.7438C25.7889 29.7438 25.7461 29.7438 25.7034 29.7438C25.6392 29.7438 25.6493 29.6676 25.6527 29.5951C25.2914 29.3628 24.022 29.1705 23.8228 28.7932C23.7181 28.7932 23.6033 28.7097 23.5425 28.8585C23.5088 28.8077 23.475 28.7569 23.4413 28.7061C23.1441 28.9165 22.8943 28.5392 22.6175 28.4521L22.5499 28.5246C22.4554 28.3033 22.2731 28.5138 22.165 28.5101C22.111 28.4339 22.0536 28.4339 22.003 28.4339C21.7092 28.5718 21.4425 28.4158 21.1893 28.7786L21.1386 28.7024L21.7768 29.9724C21.7599 30.045 21.9354 30.8324 22.1076 31.2315C22.165 31.2424 22.2359 31.3876 22.2764 31.471C22.2697 31.5146 22.2607 31.5593 22.2494 31.6053C22.3338 31.7722 22.4149 31.9355 22.4993 32.106C22.4453 32.0915 22.4318 32.1568 22.4149 32.2257C22.4824 32.4616 22.479 32.712 22.5499 32.9442C22.6343 33.0277 22.533 33.0785 22.6343 33.1909C22.6411 33.2018 22.5769 33.3361 22.5871 33.347C22.5499 33.4558 22.6175 33.5973 22.6175 33.5973C22.6445 33.855 22.631 33.6554 22.7964 33.8332C22.6478 34.0291 22.9011 34.3448 22.7491 34.5408C22.8302 34.6315 22.8301 34.5008 22.8605 34.577C22.8425 34.6109 22.8257 34.6448 22.8099 34.6786C22.7795 34.7294 22.8335 34.7548 22.8808 34.7766C22.9348 34.9217 22.8369 35.0052 22.9146 35.1431C22.9652 35.154 22.9213 35.3281 22.972 35.3463C22.9888 35.4697 23.1374 35.5096 22.9956 35.6039C22.9416 35.5894 22.972 35.847 22.9146 36.0176C22.9449 36.0829 22.9146 36.3804 22.8977 36.4385C22.9517 36.453 22.9888 36.3804 22.9652 36.4385C22.9562 36.4772 22.9449 36.5159 22.9314 36.5546C22.9888 36.5655 22.9787 36.6707 22.9618 36.7251C22.9551 36.9066 22.8504 37.0045 22.7896 37.1751C22.7322 37.5452 22.9112 37.8463 22.6715 37.977C22.7559 38.0604 22.6546 38.1584 22.6309 38.2165C22.5499 38.2564 22.5735 38.4414 22.5026 38.485C22.4115 38.7099 22.3676 38.6954 22.2832 38.924C22.1414 39.0111 22.1178 39.1127 21.9827 39.1962C21.9692 39.2373 21.9523 39.2772 21.9321 39.3159C21.9118 39.3703 21.8645 39.3558 21.8173 39.3449C21.7261 39.4465 21.3986 39.6026 21.3547 39.715L21.3817 39.784C21.1893 39.8638 21.1353 39.8892 20.9259 40.0198C20.7099 40.1577 20.5546 40.1577 20.3351 40.2847C20.1426 40.223 19.9772 40.3718 19.7814 40.3174C19.7139 40.3537 19.6396 40.4008 19.5653 40.4371C19.4674 40.4045 19.3256 40.4952 19.2513 40.4045C19.1534 40.3791 19.177 40.5714 19.0791 40.5423C19.0499 40.5302 19.0184 40.5206 18.9846 40.5133L18.9643 40.4444C18.8124 40.5242 18.6976 40.4262 18.5491 40.5097L18.522 40.4371C18.3802 40.5206 18.2553 40.4371 18.1675 40.5278C18.0392 40.4407 17.7759 40.4371 17.5564 40.4553C17.5767 40.4008 17.5328 40.3899 17.4754 40.3791L17.4079 40.4226C17.4315 40.3645 16.9993 40.4008 16.9521 40.3972L16.8508 40.3791L16.817 40.3029L16.7495 40.3573C16.6685 40.2811 16.1553 40.2267 16.0236 40.0779C15.9257 40.1831 15.8278 40.1323 15.7164 40.1105C15.2538 40.0779 14.6866 39.8566 14.6292 39.842L14.5954 39.7695C14.4368 39.8602 14.1633 39.7695 14.0958 39.6243C14.035 39.6134 13.9607 39.6026 13.9033 39.588C13.8459 39.4393 13.4779 39.4683 13.4306 39.3195C13.4306 39.3195 13.2449 39.1853 13.1639 39.08C13.0491 39.1562 12.7453 38.7716 12.6879 38.7498L12.492 38.739L12.4178 38.5031L12.1477 38.2854C12.0396 38.0677 11.9282 38.2455 11.8911 38.0532L11.8877 38.0568Z" fill="#231F20"/>
<path d="M16.1567 29.5884C16.231 29.5884 16.3086 29.5884 16.3829 29.5993C16.7442 29.9984 17.4498 29.8823 17.9157 30.129C18.1048 29.9875 18.3108 30.0746 18.4796 30.0093C18.5178 30.0625 18.5561 30.1145 18.5944 30.1653C19.0029 30.0347 19.2257 30.2597 19.6207 30.2234C19.6838 30.1822 19.7479 30.1399 19.8132 30.0964C19.8875 30.1036 19.9651 30.1109 19.9415 30.1871L20.036 30.1181L20.0901 30.2089L20.1846 30.1399C20.1643 30.2125 20.2386 30.2234 20.3129 30.2343C20.4986 30.1036 20.6167 30.2742 20.8362 30.0782C20.8902 30.1653 20.9611 30.1762 21.032 30.1871C21.2481 29.9911 21.3291 30.198 21.5992 30.1073L21.6431 30.2016L21.7411 30.1435L21.6938 30.0528C21.7208 29.9803 21.7917 29.9948 21.866 30.0165C21.9808 30.1218 22.0618 30.2851 22.2711 30.1798L22.315 30.2742C22.4332 30.1762 21.4608 30.129 22.9835 30.0746C23.0465 30.0456 23.1118 30.0141 23.1793 29.9803C23.2165 30.071 23.2874 30.0891 23.3549 30.1073C23.5473 30.0129 23.7094 29.9875 23.9018 29.8932C23.9694 29.9149 24.0842 30.0165 24.2057 29.9077L24.2429 29.9911C24.4083 29.9694 24.6412 29.9585 24.8067 29.9331C24.7797 29.9984 24.6953 29.8424 24.7628 29.8714C24.9924 29.748 25.2456 29.592 25.4718 29.7807C25.7284 29.748 25.8365 29.6101 26.1032 29.5884C26.1876 29.7226 26.4003 29.465 26.5252 29.5339C26.6468 29.5993 26.6501 29.4178 26.7312 29.5521L26.7548 29.6464C26.7818 29.6101 26.8077 29.5702 26.8324 29.5267C26.9382 29.5364 27.0384 29.5146 27.1329 29.4614C27.1903 29.5013 27.2477 29.5376 27.2916 29.4759C27.4334 29.4178 27.5617 29.4178 27.7575 29.367C27.7778 29.4686 27.9162 29.3199 27.8791 29.3779C27.9736 29.3562 28.0783 29.3344 28.1965 29.4106C28.2336 29.3525 28.2707 29.2908 28.3349 29.3271L28.4058 29.3888C28.4767 29.3743 28.4801 29.367 28.5611 29.2945C29.3748 29.2183 29.8306 28.7937 30.6341 28.7937C30.7759 28.7212 30.9144 28.6486 31.0595 28.5869C31.198 28.5107 31.3263 28.703 31.36 28.5434C31.2993 28.4998 31.5221 28.4418 31.566 28.391C31.7618 28.3619 31.8833 27.9955 31.9644 27.8793C31.907 27.8322 31.9677 27.7777 31.9475 27.6761L32.0488 27.658C32.0319 27.56 32.0116 27.1391 32.0488 27.0811C32.0319 26.9831 31.8867 27.0484 31.9306 26.9867L31.8935 26.9142C31.8361 26.8742 31.9104 26.7654 31.9509 26.711C31.9104 26.5114 31.7449 26.7327 31.6605 26.5948L31.8091 26.3554C31.7449 26.2102 31.4444 26.1304 31.3262 26.0469C31.2452 26.1667 31.252 26.1159 31.1102 26.1957L31.0629 26.0832C30.9245 26.1594 30.8434 26.0651 30.7996 26.1195C30.8603 26.1594 30.7624 26.1558 30.7287 26.2102C30.6848 26.2719 30.6409 26.33 30.5835 26.29C30.5295 26.2501 30.4687 26.2102 30.3741 26.2284C30.3449 26.2671 30.3179 26.3058 30.2931 26.3445C29.8981 26.4134 29.0169 26.4424 28.9257 26.3082C28.8605 26.3251 28.7952 26.3421 28.7299 26.359C28.7941 26.3953 28.6759 26.4787 28.713 26.4098C28.7772 26.4461 28.5375 26.3808 28.5003 26.4424C28.1863 26.4424 27.4976 26.515 27.6326 26.4279C27.4739 26.417 27.16 26.5114 27.0384 26.4424C26.9979 26.6602 26.7717 26.3154 26.7041 26.4424C26.8054 26.4098 26.5792 26.3916 26.6434 26.4316L26.6535 26.5186C26.4577 26.5803 26.4408 26.3844 26.2484 26.4606C26.1808 26.4352 26.1538 26.3953 26.1842 26.3336C26.1201 26.3082 26.0728 26.2646 26.0424 26.3336L26.0728 26.4207C25.9782 26.457 25.8128 26.2465 25.6845 26.3481C25.6136 26.3191 25.5562 26.2864 25.4887 26.261C25.2591 26.3953 25.0194 26.3953 24.7864 26.4098L24.7358 26.33C24.8067 26.3481 24.6244 26.4606 24.6514 26.3953C24.6041 26.3808 24.558 26.3687 24.513 26.359C24.3948 26.4824 23.9019 26.4787 23.7634 26.4424C23.9019 26.4787 23.4866 26.1812 23.5068 26.3336C23.1625 26.4787 22.7607 26.2574 22.3927 26.2574C22.3623 26.105 22.2103 26.3554 22.0922 26.2574C22.1192 26.1884 22.1361 26.1231 22.0719 26.1086C21.9808 26.1667 21.9099 26.1413 21.8187 26.1957C21.7478 26.1848 21.6803 26.1776 21.7005 26.1086C21.6296 26.0977 21.5553 26.0868 21.5351 26.1558C21.4642 26.1449 21.3967 26.1376 21.4203 26.0723C21.3291 26.1304 21.2346 26.2066 21.1401 26.2646C21.0725 26.2646 21.0894 26.1848 21.1097 26.1195C20.8058 26.1667 20.6302 25.8728 20.3095 25.9852C20.3264 25.9163 20.2589 25.909 20.1812 25.9018C19.9179 26.0941 19.533 25.8873 19.2899 26.0215C19.246 25.88 19.0873 25.949 18.9455 25.949C18.8543 26.0143 18.8003 25.8437 18.7328 25.8401C18.3985 25.695 18.1183 25.7712 17.7604 25.6841C17.9022 25.5389 16.7712 25.5317 16.3356 25.4446C16.0723 25.2922 15.7381 25.4373 15.4544 25.3539C15.4376 25.4301 15.424 25.5027 15.3498 25.5027C15.1371 25.4265 15.0155 25.6478 14.7758 25.7167C14.7454 25.8728 14.5834 25.9417 14.6239 26.0723C14.5226 26.2247 14.5091 26.2465 14.4348 26.2465C14.3707 26.544 14.3268 26.515 14.2559 26.8162C14.3268 26.8234 14.4044 26.8234 14.3808 26.8996C14.3268 27.1282 14.4551 27.2117 14.401 27.4367C14.4719 27.4439 14.5564 27.4475 14.526 27.5201C14.4956 27.6689 14.5564 27.7523 14.6104 27.8249C14.5901 27.9011 14.5699 27.9809 14.4956 27.9701L14.5564 28.0535L14.4618 28.1225C14.5192 28.2023 14.5023 28.2785 14.4821 28.351C14.5327 28.4309 14.7623 28.4454 14.6543 28.5905C15.1742 28.9207 15.6098 29.3235 16.15 29.5811L16.1567 29.5884Z" fill="#231F20"/>
<path d="M48.2197 22.0913C48.1826 22.055 48.1285 22.0187 48.0745 22.0078C47.8584 21.9606 47.6423 22.1312 47.3081 22.4178L47.0481 22.621C46.1399 23.1399 45.4478 25.5746 45.2958 26.5761C45.2722 26.587 45.2486 26.6088 45.2013 26.6305C44.6375 25.5964 43.6212 24.6349 42.5645 24.4897C42.9797 26.2205 44.3978 31.4492 46.2851 30.9993C47.2406 30.7634 49.2461 26.4346 49.2596 24.0398V23.9491C49.2494 22.69 48.7093 22.2328 48.2197 22.084V22.0913Z" fill="#F48120"/>
<path d="M60.9453 48.7104C58.5819 48.812 57.7919 48.6778 55.4757 49.4942C55.1584 49.603 54.8781 49.8389 54.6114 50.1546C54.6486 50.6843 54.3548 51.508 54.814 51.7003C54.8342 51.7076 54.8342 51.7874 54.8545 51.8309C54.9862 51.9761 55.1314 51.9942 55.263 52.1757C55.3474 52.3135 55.4217 52.1648 55.5129 52.2192C55.5635 52.27 55.5804 52.3462 55.6243 52.3607C55.8505 52.4768 56.0598 52.4297 56.286 52.5494C56.4008 52.6474 56.5156 52.6256 56.6304 52.6474C56.7013 52.6147 56.7891 52.7925 56.806 52.8324C57.2415 53.0247 57.6365 52.8542 58.0721 52.8433C59.3855 52.8215 59.1424 52.6836 60.4456 52.6619C61.553 52.6474 62.6334 52.8288 63.7307 52.807C64.3384 52.7852 64.9833 52.807 65.5775 52.7598C66.6309 52.6982 67.6911 52.876 68.7546 52.8832C69.2813 52.876 69.8958 53.0973 70.4292 53.1372C71.0065 53.1372 71.5501 52.9812 72.1342 53.1009C72.3199 53.1191 72.5056 53.09 72.6845 53.1844C72.8567 53.2787 73.0492 53.3694 73.2146 53.3876C73.7177 53.4202 74.1701 53.2207 74.6631 53.0211C74.95 52.9231 75.2471 52.8651 75.5139 52.6909C75.6455 52.622 75.7738 52.3897 75.8278 52.1575C75.9629 51.733 76.0777 51.2685 75.9325 50.7823C75.9055 50.7823 75.838 50.8186 75.8143 50.775C75.7637 50.6916 75.7705 50.4993 75.7029 50.492C75.4902 50.4013 75.2809 50.3795 75.0682 50.3251C74.788 50.2634 74.4976 50.1255 74.2241 50.0675C72.9108 49.7264 65.4222 48.5108 60.9352 48.714L60.9453 48.7104Z" fill="#00A77E"/>
<path d="M38.0437 49.6352C38.2834 49.6932 38.5535 49.686 38.6818 49.8601C38.8169 49.9908 38.5535 50.2194 38.5704 50.3899C38.5704 50.8072 38.7156 51.1846 38.7088 51.6018C38.7156 51.6672 38.6784 51.7434 38.6075 51.8159C38.54 51.9248 38.4354 52.0373 38.324 52.1062C37.9931 52.3312 37.5609 52.2405 37.1794 52.3638C36.6932 52.5199 36.153 52.5779 35.6533 52.6323C34.7316 52.7376 33.8605 52.5307 32.9287 52.4945C32.5742 52.4799 32.1994 52.5235 31.8989 52.6432C31.4769 52.763 31.0481 52.7485 30.6227 52.7303C28.4045 52.6432 26.2302 52.5961 24.0255 52.6178C23.6372 52.6323 23.2152 52.6868 22.8269 52.694C21.0544 52.8029 19.2886 52.7702 17.5127 52.821C16.8914 52.8355 16.2736 52.8537 15.6523 52.8355C15.308 52.8464 14.9535 52.8573 14.6462 52.8682C13.3329 52.9335 11.9891 53.0061 10.669 52.9444C10.1693 52.9553 9.63586 52.9589 9.12267 52.9589C7.66074 53.0424 6.16506 53.3 4.68963 53.2165C3.60585 53.1549 2.58958 52.8863 1.59021 52.3384C0.914954 51.9574 0.384894 51.4422 0 50.8145C0.249843 50.4625 0.631359 50.3137 1.05339 50.2157C2.04264 49.9218 2.95422 49.7404 3.95359 49.5554C4.79765 49.4066 5.56746 49.3268 6.37438 49.2542C16.9894 48.2346 28.8907 48.6119 33.5263 48.9458C35.0895 49.0619 36.5379 49.2796 38.037 49.6352H38.0437Z" fill="#0079C0"/>
</svg>
