<svg width="56" height="56" viewBox="0 0 56 56" fill="none" xmlns="http://www.w3.org/2000/svg">
<path d="M19.8458 24.6485L28.0031 16.4944L36.1638 24.6551L40.9076 19.908L28.0031 7L15.0986 19.9046L19.8458 24.6485Z" fill="#F3BA2F"/>
<path d="M11.7454 23.2564L7 28.0018L11.7454 32.7472L16.4908 28.0018L11.7454 23.2564Z" fill="#F3BA2F"/>
<path d="M19.8456 31.353L28.0029 39.5104L36.1636 31.3496L40.9107 36.0902L40.9074 36.0935L28.0029 49.0015L15.0984 36.1001L15.0918 36.0935L19.8456 31.353Z" fill="#F3BA2F"/>
<path d="M44.2542 23.2575L39.5088 28.003L44.2542 32.7484L48.9996 28.003L44.2542 23.2575Z" fill="#F3BA2F"/>
<path d="M32.8142 27.9991L28.0008 23.1822L24.4413 26.7418L24.0299 27.1498L23.1873 27.9924L23.1807 28.0024L23.1873 28.009L28.0008 32.8192L32.8142 28.0024H32.8176L32.8142 27.9991Z" fill="#F3BA2F"/>
</svg>
