<svg width="56" height="56" viewBox="0 0 56 56" fill="none" xmlns="http://www.w3.org/2000/svg">
<path d="M28.4256 23.2097C24.3845 23.2097 21.0586 26.5584 21.0586 30.6221C21.0586 34.6859 24.3845 38.0346 28.4256 38.0346C32.4667 38.0346 35.7926 34.6859 35.7926 30.6221C35.7926 26.5584 32.4667 23.2097 28.4256 23.2097Z" fill="#2EAC91"/>
<path d="M28.4232 12.8459C25.8124 12.8459 23.3151 13.4362 21.0562 14.367V20.5649C23.1903 19.1573 25.6876 18.2265 28.4232 18.2265C35.5519 18.2265 41.3751 23.9589 41.3751 30.9741C41.3751 37.9892 35.5519 43.7216 28.4232 43.7216C21.2946 43.7216 15.4714 37.9892 15.4714 30.9741V7H10V30.9854C10 40.9292 18.1957 49 28.4232 49C38.6508 49 46.8465 40.9292 46.8465 30.8605C46.733 20.9168 38.5259 12.8459 28.4232 12.8459Z" fill="#003F6B"/>
</svg>
