<svg width="56" height="56" viewBox="0 0 56 56" fill="none" xmlns="http://www.w3.org/2000/svg">
<path d="M16.972 28.0001H16.4265C13.9162 28.0001 12.4644 25.9652 13.1845 23.4548L15.0091 17.0912H20.0999L16.972 28.0004V28.0001Z" fill="#D1350F"/>
<path d="M32.6453 17.0909H29.5544L26.4262 28.0001H29.5171C31.5171 28.0001 32.1735 29.5153 31.3046 32.5454C30.4357 35.5761 28.9105 37.091 26.9102 37.091C24.9099 37.091 24.2537 35.5761 25.1226 32.5454L30.8574 12.5456C31.5776 10.035 30.1261 8 27.6158 8H21.2521L14.2137 32.5454C11.2594 42.8484 15.2366 48 23.7823 48C32.3279 48 39.2593 42.8484 42.2139 32.5454C45.1681 22.2425 41.1909 17.0909 32.6453 17.0909Z" fill="#FF8200"/>
<path d="M42.2144 32.5454C45.1686 22.2425 41.1914 17.0909 32.6458 17.0909H29.5549L26.4268 28.0001H29.5176C31.5176 28.0001 32.174 29.5153 31.3051 32.5457" fill="url(#paint0_linear_481_828)"/>
<defs>
<linearGradient id="paint0_linear_481_828" x1="37.2074" y1="29.7699" x2="32.1974" y2="21.2649" gradientUnits="userSpaceOnUse">
<stop stop-color="#FF8200"/>
<stop offset="1" stop-color="#D1350F"/>
</linearGradient>
</defs>
</svg>
