<svg width="56" height="56" viewBox="0 0 56 56" fill="none" xmlns="http://www.w3.org/2000/svg">
<path d="M39.9092 31.3926V17H42.7993V31.3926H39.9092Z" fill="#F7A600"/>
<path d="M6.19789 35.6667H0V21.274H5.95332C8.84309 21.274 10.5293 22.851 10.5293 25.3163C10.5293 26.9126 9.44808 27.9425 8.69506 28.2901C9.58967 28.6956 10.7353 29.6032 10.7353 31.5214C10.7353 34.2055 8.84309 35.6667 6.19789 35.6667ZM5.72162 23.7844H2.88977V27.0993H5.72162C6.9509 27.0993 7.63312 26.4299 7.63312 25.4386C7.63312 24.4474 6.94447 23.7844 5.72162 23.7844ZM5.90827 29.6225H2.88977V33.1628H5.90827C7.22122 33.1628 7.84551 32.3517 7.84551 31.3862C7.84551 30.4207 7.22122 29.629 5.90827 29.629V29.6225Z" fill="white"/>
<path d="M19.5595 29.7641V35.6667H16.6891V29.7641L12.2354 21.274H15.3761L18.1436 27.0736L20.8725 21.274H24.0133L19.5595 29.7641Z" fill="white"/>
<path d="M32.2125 35.6667H26.0146V21.274H31.968C34.8577 21.274 36.544 22.851 36.544 25.3163C36.544 26.9126 35.4627 27.9425 34.7097 28.2901C35.6043 28.6956 36.7499 29.6032 36.7499 31.5214C36.7499 34.2055 34.8577 35.6667 32.2125 35.6667ZM31.7298 23.7844H28.898V27.0993H31.7298C32.9591 27.0993 33.6413 26.4299 33.6413 25.4386C33.6413 24.4474 32.9527 23.7844 31.7298 23.7844ZM31.9165 29.6225H28.898V33.1628H31.9165C33.2294 33.1628 33.8537 32.3517 33.8537 31.3862C33.8537 30.4207 33.2294 29.629 31.9165 29.629V29.6225Z" fill="white"/>
<path d="M52.126 23.7844V35.6667H49.2362V23.7844H45.3682V21.2805H56.0005V23.7844H52.1324H52.126Z" fill="white"/>
</svg>
