<svg width="56" height="56" viewBox="0 0 56 56" fill="none" xmlns="http://www.w3.org/2000/svg">
<path d="M47.9985 27.8555C48.0363 31.1615 47.3447 34.3281 45.9994 37.3428C44.0756 41.6367 39.4486 45.158 35.2365 41.4214C31.7914 38.3688 31.1627 32.1748 25.995 31.2755C19.1677 30.4395 19.0042 38.4068 14.5532 39.3061C9.57414 40.3194 7.92702 31.9088 8.00246 28.0835C8.0779 24.2582 9.08378 18.8876 13.3965 18.8876C18.363 18.8876 18.7024 26.4622 25.0017 26.0568C31.2507 25.6262 31.3513 17.7476 35.4377 14.3656C38.9582 11.4523 43.0949 13.5929 45.1695 17.1016C47.0932 20.3442 47.9357 24.1569 47.9734 27.8555H47.9985Z" fill="#97FCE4"/>
</svg>
