<svg width="56" height="56" viewBox="0 0 56 56" fill="none" xmlns="http://www.w3.org/2000/svg">
<path d="M33.7916 22.001H22.676C22.2046 22.001 21.8223 22.3603 21.8223 22.8001V33.1999C21.8223 33.6426 22.2046 33.999 22.676 33.999H33.7916C34.2631 33.999 34.6454 33.6397 34.6454 33.1999V22.8001C34.6454 22.3574 34.2631 22.001 33.7916 22.001Z" fill="black"/>
<path d="M20.9694 10H9.85372C9.38231 10 9 10.3593 9 10.7991V21.199C9 21.6416 9.38231 21.9981 9.85372 21.9981H20.9694C21.4408 21.9981 21.826 21.6388 21.826 21.199V10.7991C21.826 10.3593 21.4408 10 20.9694 10Z" fill="black"/>
<path d="M46.6237 10H35.508C35.0366 10 34.6543 10.3593 34.6543 10.7991V21.199C34.6543 21.6416 35.0366 21.9981 35.508 21.9981H46.6237C47.0951 21.9981 47.4774 21.6388 47.4774 21.199V10.7991C47.4774 10.3593 47.0951 10 46.6237 10Z" fill="black"/>
<path d="M20.9694 34.0019H9.85372C9.38231 34.0019 9 34.3612 9 34.801V45.2009C9 45.6436 9.38231 46 9.85372 46H20.9694C21.4408 46 21.826 45.6407 21.826 45.2009V34.801C21.826 34.3584 21.4437 34.0019 20.9694 34.0019Z" fill="black"/>
<path d="M46.6237 34.0019H35.508C35.0366 34.0019 34.6543 34.3612 34.6543 34.801V45.2009C34.6543 45.6436 35.0366 46 35.508 46H46.6237C47.0951 46 47.4774 45.6407 47.4774 45.2009V34.801C47.4774 34.3584 47.0951 34.0019 46.6237 34.0019Z" fill="black"/>
</svg>
